<?xml version="1.0" encoding="utf-8"?>
<!-- Generator: Adobe Illustrator 23.0.1, SVG Export Plug-In . SVG Version: 6.00 Build 0)  -->
<svg version="1.1" id="Layer_1" xmlns="http://www.w3.org/2000/svg" xmlns:xlink="http://www.w3.org/1999/xlink" x="0px" y="0px"
	 viewBox="0 0 288 432" style="enable-background:new 0 0 288 432;" xml:space="preserve">
<style type="text/css">
	.st0{fill:#010101;}
	.st1{fill:#FAF63E;}
	.st2{fill:#FAF63F;}
</style>
<g>
	<path d="M141.8,83.16c-0.17,0.04-0.37,0.05-0.54,0.13c-2.84,1.33-5.63,2.74-8.32,4.37c-0.11,0.07-0.25,0.11-0.33,0.2
		c-1.37,1.44-3.14,2.33-4.75,3.45c-0.16,0.49-0.23,1.03-0.49,1.45c-0.27,0.43-0.69,0.78-1.09,1.12c-0.69,0.59-1.42,1.15-2.13,1.73
		c-0.05,0.04-0.07,0.1-0.12,0.17c0.13,0.43,0.5,0.32,0.76,0.26c0.76-0.18,1.5-0.45,2.26-0.61c0.36-0.08,0.75,0,1.28,0.01
		c-0.18,0.29-0.24,0.5-0.37,0.57c-1.18,0.69-2.35,1.44-3.58,2.02c-2.5,1.17-4.72,2.79-7.06,4.22c-1.17,0.71-2.33,1.45-3.47,2.21
		c-0.7,0.47-1.35,1.01-2.08,1.57c0.08,0.56,0.15,1.06,0.23,1.57c0.09,0.51,0.22,1.01,0.28,1.52c0.09,0.75-0.15,1.42-0.66,1.98
		c-0.53,0.57-1.05,1.14-1.56,1.69c0.04,0.34,0.26,0.44,0.54,0.48c0.38,0.07,0.75,0.15,1.01,0.2c0.31,0.43,0.3,0.76,0.07,1.02
		c-0.34,0.39-0.71,0.77-1.13,1.06c-1.18,0.83-2.25,1.79-3.23,2.85c-0.74,0.78-1.21,1.7-1.27,2.8c-0.01,0.23,0.11,0.47,0.2,0.81
		c0.63-0.28,1.14-0.56,1.69-0.74c0.37-0.12,0.79-0.11,1.08,0.49c-0.06,0.31-0.16,0.75-0.24,1.19c-0.26,1.41-0.53,2.82-0.77,4.24
		c-0.1,0.55-0.29,1-0.96,1.21c-0.37-0.52-0.43-1.15-0.51-1.78c-0.09-0.64-0.26-1.26-0.68-1.86c-0.2,0.18-0.44,0.28-0.46,0.43
		c-0.25,1.48-0.62,2.96-0.66,4.45c-0.05,1.49,0.27,2.99,0.83,4.4c0.14,0.35,0.45,0.63,0.74,1.02c-0.62,1.46-1.21,2.98-1.91,4.44
		c-0.67,1.38-1.05,2.81-1.07,4.33c-0.01,1.24-0.01,2.49,0.07,3.72c0.07,0.97-0.02,1.93-0.07,2.89c-0.05,0.96-0.39,1.77-0.94,2.66
		c-0.29-0.39-0.54-0.72-0.84-1.13c-0.21,0.22-0.44,0.36-0.55,0.57c-1.25,2.22-2.61,4.36-4.2,6.36c-0.24,0.3-0.4,0.67-0.61,1
		c-0.65,0.98-1.35,1.89-2.26,2.66c-0.89,0.76-1.76,1.55-2.33,2.62c-0.27,0.52-0.65,0.95-1.37,0.98c-0.04-0.24-0.13-0.43-0.1-0.6
		c0.05-0.32,0.16-0.63,0.24-0.95c0.55-2.11,0.52-2.14,2.24-3.45c0.96-0.73,1.65-1.67,2.31-2.63c1.48-2.15,2.97-4.3,4.32-6.52
		c0.67-1.1,1.35-2.23,1.62-3.53c0.09-0.44,0.32-0.85,0.47-1.28c0.14-0.38,0.12-0.76,0-1.17c-0.31,0-0.55,0-0.78,0
		c-0.08-0.13-0.19-0.22-0.21-0.33c-0.15-0.8,0.01-1.55,0.38-2.27c0.24-0.46,0.42-0.94,0.64-1.46c-0.93,0.18-1.15,0.32-1.45,1.03
		c-0.26,0.6-0.45,1.22-0.73,1.81c-0.13,0.27-0.41,0.27-0.66,0.1c-0.05-0.12-0.16-0.24-0.15-0.35c0.1-1.37,0.22-2.73,0.33-4.09
		c0.02-0.19,0.04-0.39,0.09-0.58c0.12-0.51,0.55-0.92,1.13-0.88c0.48,0.03,0.9,0.07,1.28-0.33c0.3-0.6,0.21-1.27,0.17-1.91
		c-0.15-2.22-0.01-4.43,0.28-6.63c0.14-1.05,0.05-2.06-0.39-3.06c-0.54-1.26-0.93-2.58-1.44-3.85c-0.46-1.16-1.13-2.21-2.03-3.08
		c-0.1-0.1-0.4-0.13-0.52-0.06c-0.13,0.08-0.26,0.35-0.22,0.5c0.64,2.25,0.87,4.61,1.76,6.8c0.22,0.54,0.35,1.1,0.39,1.69
		c0.1,1.3,0.35,2.58,0.45,3.88c0.08,1.03-0.01,1.11-0.79,2.07c-0.87-0.13-0.61-1.23-1.32-1.51c-0.5,0.36-0.43,0.92-0.43,1.42
		c0.01,1.64-0.23,3.25-0.62,4.84c-0.09,0.35-0.23,0.68-0.39,1.16c-0.55-1.66-1.08-3.13-1.51-4.63c-0.23-0.78-0.74-1.38-1.15-2.03
		c-1.18-1.88-2.58-3.6-3.96-5.22c-0.95-0.13-0.58,1.05-1.32,1.06c-0.09-0.02-0.25-0.01-0.33-0.08c-0.74-0.67-1.17-1.56-1.64-2.42
		c-0.44-0.8-0.91-1.58-1.36-2.37c-0.9-1.58-1.79-3.17-2.61-4.63c0.08-0.64,0.37-0.92,0.79-0.93c0.71-0.02,1.43,0.05,2.14,0.1
		c0.31,0.02,0.61,0.11,0.99,0.19c-0.07-0.22-0.08-0.35-0.14-0.41c-0.97-0.77-1.94-1.52-2.99-2.34c-0.28,0.22-0.62,0.36-0.74,0.61
		c-0.51,1.02-1.31,1.78-2.09,2.58c-0.86,0.89-1.74,1.78-2.57,2.7c-0.25,0.28-0.41,0.66-0.54,1.02c-0.04,0.12,0.13,0.31,0.21,0.48
		c1-0.29,1.71-1.33,2.99-0.97c-1,2-1.88,3.95-3.05,5.75c-0.36,0.54-0.4,1.07-0.06,1.75c0.25-0.13,0.51-0.19,0.66-0.35
		c0.76-0.81,1.48-1.65,2.23-2.47c0.25-0.28,0.55-0.51,0.81-0.74c0.64,0.34,0.57,0.84,0.39,1.24c-0.59,1.31-1.17,2.62-1.88,3.86
		c-0.53,0.91-0.99,1.84-1.33,2.83c-0.46,1.36-0.8,2.76-1.58,4c-0.17,0.26-0.24,0.62-0.25,0.93c-0.03,1.36-0.01,2.72-0.01,4.16
		c0.15-0.05,0.37-0.04,0.45-0.15c0.3-0.43,0.52-0.91,0.82-1.34c0.25-0.36,0.59-0.66,0.96-1.07c0.66,0.99,0.4,2,0.47,2.94
		c0.07,0.97-0.08,1.95,0.09,2.87c0.4,0.22,0.56-0.05,0.66-0.24c0.36-0.7,0.65-1.42,1-2.12c0.14-0.27,0.36-0.5,0.63-0.84
		c0.25,0.26,0.54,0.42,0.57,0.61c0.09,0.57,0.17,1.17,0.09,1.74c-0.33,2.12-0.72,4.23-1.1,6.43c0.77,1.04,1.54,2.08,2.33,3.16
		c-0.14,0.3-0.22,0.63-0.4,0.88c-1.68,2.25-3.39,4.48-5.08,6.72c-0.94,1.25-1.85,2.53-2.77,3.8c-0.5,0.7-1.05,1.34-1.9,1.58
		c-0.47-0.13-0.6-0.5-0.69-0.88c-0.36-1.53-0.72-3.05-1.06-4.58c-0.55-2.48-1.07-4.97-1.61-7.46c-0.05-0.24-0.15-0.48-0.26-0.81
		c-1.23,0.57-1.72,1.88-2.91,2.48c-0.53-0.73-0.84-1.47-0.66-2.36c0.68-3.45,1.1-6.96,2.45-10.24c0.02-0.05-0.01-0.13-0.03-0.3
		c-0.75-0.08-1.17,0.81-2.02,0.71c-0.15-0.28-0.32-0.6-0.46-0.87c1.42-3.35,2.15-6.8,3.26-10.12c-0.23-0.3-0.48-0.21-0.7-0.05
		c-0.69,0.5-1.36,1.02-2.05,1.51c-0.31,0.22-0.59,0.54-1.05,0.45c-0.41-0.35-0.4-0.83-0.18-1.23c0.97-1.84,1.49-3.91,2.82-5.56
		c0.64-1.72,1.83-3.14,2.59-4.81c0.69-1.53,1.64-2.96,2.83-4.21c0.58-0.61,1.02-1.36,1.54-2.02c1.36-1.74,2.73-3.48,4.11-5.21
		c0.24-0.3,0.52-0.6,0.83-0.83c1.69-1.28,2.69-2.99,3.19-5.03c0.08-0.32,0.16-0.63,0.24-0.96c-0.28-1.26-0.27-2.58-0.8-3.85
		c-1.22,0.03-1.47,1.56-2.63,1.55c-0.35-0.14-0.44-0.49-0.41-0.79c0.08-0.77,0.15-1.56,0.37-2.3c0.35-1.19,0.82-2.34,1.24-3.5
		c0.32-0.87,0.52-1.77,0.39-2.69c-0.21-1.51,0.37-2.81,0.94-4.08c0.59-0.1,0.78,0.28,0.88,0.65c0.41,1.51,0.78,3.04,1.19,4.55
		c0.28,1.01,0.59,2,0.93,2.99c0.07,0.21,0.32,0.36,0.5,0.56c0.46-1.24,0.91-2.39,1.3-3.55c0.14-0.43,0.14-0.9,0.24-1.34
		c0.17-0.7,0.78-1.03,1.52-0.79c0.29,0.1,0.54,0.33,0.74,0.46c0.26,1,0.2,1.83-0.15,2.74c-0.44,1.14-0.78,2.33-0.94,3.56
		c-0.14,1.03-0.67,1.94-1.08,2.88c-0.58,1.31-1.13,2.63-1.68,3.96c-0.05,0.11-0.01,0.25-0.01,0.49c0.2,0.16,0.42,0.44,0.7,0.53
		c1.21,0.37,2.22,1.08,3.24,1.79c0.2,0.14,0.45,0.22,0.64,0.3c0.43-0.32,0.25-0.64,0.16-0.93c-0.44-1.44-0.94-2.86-1.05-4.37
		c-0.01-0.12,0.02-0.25,0.04-0.38c0.24-0.4,0.62-0.52,1-0.31c0.34,0.18,0.65,0.44,0.9,0.74c0.46,0.55,0.86,1.15,1.27,1.74
		c0.34,0.48,0.58,1.04,0.98,1.46c1.14,1.21,1.97,2.55,2.37,4.18c0.22,0.89,0.77,1.65,1.66,2.19c0.02-0.25,0.11-0.46,0.05-0.59
		c-1.01-2.19-2.03-4.38-3.07-6.56c-0.17-0.35-0.48-0.61-0.7-0.94c-0.47-0.71-0.91-1.43-0.81-2.35c0.1-0.98-0.45-1.76-0.94-2.52
		c-0.45-0.68-0.74-1.38-0.67-2.2c0.02-0.24,0.15-0.48,0.25-0.78c1.47,0.18,2.45,1.23,3.57,1.74c0.43-0.09,0.51-0.34,0.55-0.6
		c0.15-1.1,0.26-2.2,0.44-3.3c0.03-0.21,0.29-0.39,0.47-0.55c0.06-0.05,0.23,0.05,0.41,0.09c1.07,3.24,2.14,6.52,3.54,10.04
		c0.25-1.07,0.41-1.8,0.57-2.47c0.74-0.48,1.34-0.34,1.85,0.17c0.28,0.27,0.47,0.62,0.73,0.92c0.2,0.24,0.44,0.46,0.75,0.78
		c0.1-0.29,0.23-0.46,0.19-0.59c-0.3-1.2-0.66-2.39-0.93-3.6c-0.06-0.27,0.12-0.59,0.21-0.98c0.65,0.07,1.21,0.12,1.76,0.18
		c0.05-0.14,0.15-0.27,0.13-0.38c-0.13-0.57-0.27-1.15-0.46-1.7c-0.41-1.16-0.86-2.31-1.31-3.51c-0.59-0.07-0.61,0.83-1.19,0.76
		c-1.64-1.7-1.91-2.53-1.3-4.05c1.13-0.02,1.41,1.01,2.07,1.7c1.17-0.13,2.23,0.19,3,1.24c0.13,0.18,0.42,0.25,0.63,0.37
		c0.09-0.19,0.21-0.32,0.2-0.42c-0.24-1.33-0.36-2.69-0.77-3.91c-0.46-0.14-0.6,0.09-0.74,0.3c-0.32,0.48-0.57,1.03-1.17,1.22
		c-0.34-0.08-0.39-0.36-0.4-0.61c-0.02-0.39-0.03-0.79,0.06-1.17c0.43-1.91,0.74-3.84,1.4-5.7c0.28-0.79,0.38-1.65,0.52-2.48
		c0.13-0.79,0.29-1.54,1.06-2.12c0.58,0.06,1.22,0.1,1.85,0.19c0.69,0.1,1,0.62,0.75,1.3c-0.33,0.92-0.71,1.82-1.06,2.74
		c-0.07,0.18-0.12,0.37-0.19,0.6c0.29,0.86,0.18,1.89,0.88,2.64c0.44-0.17,0.53-0.51,0.56-0.82c0.13-1.19,0.73-2.21,1.16-3.3
		c0.48-1.21,0.96-2.42,1.43-3.63c0.12-0.3,0.22-0.63,0.23-0.95c0.05-1.55,0.08-3.1,0.11-4.63c-0.28-0.24-0.49-0.1-0.7,0.07
		c-0.78,0.62-1.34,1.43-1.85,2.27c-0.38,0.62-0.77,1.19-1.38,1.51c-0.42-0.07-0.45-0.35-0.48-0.6c-0.08-0.7,0.16-1.43-0.13-2.14
		c-0.24,0-0.45-0.06-0.6,0.01c-1.21,0.51-2.33,1.16-3.23,2.13c-0.58,0.62-1.21,1.17-1.83,1.74c-0.99,0.92-2.03,1.84-2.41,3.26
		c-0.11,0.41-0.47,0.75-0.68,1.07c-0.44,0.05-0.57-0.18-0.68-0.41c-0.18-0.39-0.34-0.79-0.57-1.32c-0.24,0.34-0.45,0.53-0.52,0.76
		c-0.24,0.88-0.42,1.77-0.63,2.66c-0.14,0.57-0.23,1.16-0.46,1.69c-0.17,0.39-0.51,0.71-0.75,1.02c-0.78-0.11-1.05-0.7-1.45-1.1
		c-0.37-0.37-0.74-0.74-1.41-0.77c-0.44,0.38-0.98,0.75-1.4,1.24c-1.11,1.29-2.49,2.29-3.7,3.46c-0.89,0.86-1.92,1.54-3.04,2.24
		c-0.17-0.24-0.39-0.42-0.44-0.65c-0.14-0.56-0.17-1.11-0.62-1.6c-0.35-0.38-0.3-0.98-0.1-1.5c0.66-1.7,1.28-3.43,2.02-5.1
		c0.31-0.7,0.87-1.29,1.4-2.04c-0.49-1.64-1.27-3.26-2.04-4.84c-0.47-0.15-0.68,0.13-0.9,0.35c-0.66,0.63-1.31,1.26-2.13,1.63
		c-0.46-0.1-0.51-0.45-0.49-0.76c0.03-0.58,0.13-1.17,0.21-1.75c0.15-1.1,0.32-2.19,0.47-3.29c0.06-0.42-0.08-0.84-0.45-1.02
		c-1.4-0.69-1.44-1.84-1.22-3.16c0.2-1.15,0.3-2.32,0.42-3.34c-0.1-0.28-0.11-0.44-0.2-0.51c-0.88-0.73-1.19-1.63-1.12-2.77
		c0.06-0.96-0.07-1.93-0.16-2.9c-0.02-0.24-0.18-0.48-0.59-0.48c-0.2,1.68-0.14,3.37-0.02,5.06c0.08,1.24,0.18,2.47,0.27,3.71
		c0.09,1.3,0.19,2.61,0.24,3.91c0.05,1.24,0.06,2.48,0.07,3.72c0.02,1.36,0.03,2.73,0.04,4.13c0.27,0.15,0.48,0.29,0.71,0.38
		c0.65,0.25,0.89,0.76,0.8,1.4c-0.1,0.64-0.38,1.26,0,1.96c0.12,0.07,0.28,0.17,0.45,0.25c1.24,0.58,1.56,1.45,0.94,2.66
		c-0.44,0.87-0.88,1.76-1.39,2.59c-0.93,1.51-1.53,3.18-2.25,4.78c-0.25,0.57-0.58,1-1.25,1.11c-0.1-0.2-0.26-0.37-0.26-0.54
		c-0.07-1.37-0.08-2.73,0.27-4.08c0.23-0.88,0.37-1.79,0.52-2.69c0.04-0.24-0.04-0.5-0.07-0.72c-0.76-0.52-1.4,0.48-2.18-0.03
		c-0.03-0.37-0.06-0.81-0.1-1.22c0.53-0.81,1.03-1.57,1.54-2.34c-0.1-0.47-0.23-0.9-0.29-1.35c-0.05-0.39-0.03-0.78-0.03-1.18
		c-0.03-3.66-0.09-7.32-0.09-10.99c0-2.17-0.22-4.3-0.65-6.42c-0.34-1.66-0.57-3.34-0.85-5.06c0.36-0.34,0.69-0.64,1.13-1.05
		c0.18-1.94,0.37-4.01,0.58-6.19c0.3-0.28,0.68-0.63,1.11-1.03c-0.12-0.5-0.25-1-0.35-1.51c-0.23-1.17,0.55-2.08,1.73-2.04
		c0.62,0.02,1.13,0.29,1.65,0.56c0.57,0.3,1.03,0.81,1.74,0.87c0.2-0.33,0.4-0.66,0.64-1.06c0.33,0.07,0.68,0.06,0.92,0.21
		c0.32,0.2,0.61,0.5,0.84,0.81c1.79,2.43,2.83,3.6,5.19,5.82c0.05,0.04,0.09,0.1,0.13,0.15c2.04,2.33,4.5,4.19,7.08,5.83
		c1.98,1.26,3.92,2.59,5.9,3.85c0.22,0.14,0.49,0.22,0.68,0.39c1.68,1.55,3.78,1.89,5.92,2.23c2.11,0.34,4.26,0.58,6.29,1.36
		c0.42,0.16,0.88,0.25,1.3,0.37c0.62-0.23,1.23-0.46,1.84-0.68c3.2-1.16,6.5-1.93,9.81-2.66c1.52-0.34,3.05-0.64,4.57-1.02
		c1.38-0.35,2.82-0.5,4.21-0.86c0.47-0.12,0.91,0.02,1.25,0.61c-0.13,0.37-0.3,0.84-0.48,1.37c5.41-0.15,10.75-0.07,16.18-0.09
		c0.3-0.25,0.67-0.52,1-0.82c1.1-1,2.22-1.98,3.38-2.91c1.12-0.9,2.19-1.86,3.26-2.81c0.54-0.48,0.97-1.03,1.33-1.68
		c1.33-2.4,2.83-4.7,4.52-6.87c0.92-1.18,1.81-2.4,2.66-3.63c1.4-2.06,3.02-3.92,4.71-5.75c0.97-1.05,1.79-2.25,2.85-3.22
		c0.19-0.18,0.36-0.38,0.55-0.56c0.38-0.34,0.39-0.33,1.54-0.29c0.09,0.34,0.19,0.71,0.29,1.08c0.08,0.31,0.15,0.63,0.22,0.92
		c1.1,0.68,2.13,1.36,3.21,1.97c1.43,0.81,2.7,1.82,3.99,2.83c0.82,0.64,1.7,1.22,2.56,1.81c0.59,0.42,1.18,0.84,1.4,1.7
		c-0.33,0.47-0.7,1-1.08,1.55c0.03,0.17,0.01,0.4,0.1,0.54c0.85,1.24,1.66,2.5,2.18,3.93c1.04,1.05,0.67,1.96-0.25,2.84
		c-0.09,0.09-0.15,0.21-0.31,0.43c0.13,0.47,0.29,1.02,0.45,1.6c0.45,0.3,0.88,0.58,1.34,0.88c0.06,0.15,0.17,0.33,0.2,0.51
		c0.28,1.61,0.53,3.22,0.84,4.82c0.46,2.44,0.9,4.88,1.15,7.35c0.2,2.03,0.95,3.93,1.36,5.9c0.44,2.1,0.98,4.19,1.38,6.3
		c0.16,0.85,0.49,1.53,1.23,1.88c2,0.97,3.72,2.39,5.69,3.42c0.91,0.47,1.67,1.23,2.53,1.88c-1.03,1.63-2.01,3.16-3.03,4.77
		c0.27,0.32,0.47,0.66,0.75,0.88c2.68,2.01,4.97,4.42,7.15,6.94c0.85,0.98,1.74,1.94,2.67,2.84c0.88,0.85,1.05,1.75,0.51,2.83
		c-0.06,0.11-0.08,0.24-0.15,0.45c0.44,2.12,1.39,4.12,2.3,6.15c0.26,0.59,0.47,1.2,0.71,1.8c0.12,0.3,0.2,0.62,0.35,0.91
		c0.74,1.46,1.2,3.03,1.81,4.54c1,2.44,1.55,4.97,2.1,7.49c-0.26,0.99-0.74,1.82-1.59,2.36c0.25,2.18,1.78,3.69,2.54,5.6
		c-0.57,0.75-0.43,1.56-0.3,2.42c0.35,2.2,1.19,4.28,1.67,6.43c0.47,2.1,1.5,3.84,2.78,5.54c1.76,2.35,3.35,4.83,4.96,7.28
		c1.14,1.75,2.3,3.49,3.19,5.39c0.21,0.46,0.41,0.93,0.63,1.42c-0.88,0.45-2.01,0.06-2.5,1.04c-0.02,0.74-0.08,1.45-0.03,2.16
		c0.03,0.51,0.13,1.04,0.33,1.51c1.92,4.29,3.57,8.7,5.36,13.05c1.53,3.74,3.08,7.49,5.22,10.96c0.27,0.43,0.45,0.92,0.65,1.35
		c-0.58,0.81-1.49,0.94-2.24,1.44c-0.23,0.75-0.09,1.5,0.18,2.25c0.57,1.53,1.12,3.07,1.71,4.59c1.67,4.25,3.34,8.5,5.06,12.74
		c0.54,1.33,1.21,2.61,1.84,3.9c0.95,1.93,1.92,3.86,2.89,5.79c0.72,1.43,1,2.96,1.18,4.52c0.23,2.01,0.55,4,0.99,5.99
		c0.44,1.97,0.65,4,0.98,5.99c0.19,1.16,0.41,2.31,0.67,3.46c0.4,1.71,0.7,3.44,0.97,5.13c-0.44,0.27-0.56-0.02-0.68-0.2
		c-1.5-2.14-3.11-4.2-4.4-6.48c-0.61-1.08-1.33-2.09-2.01-3.13c-1.57-2.41-3.15-4.81-4.72-7.22c-0.66-1.01-1.5-1.79-2.64-2.09
		c-0.54,0.08-0.79,0.38-0.89,0.78c-0.29,1.2-0.56,2.41-0.81,3.63c-0.52,2.5-1.26,4.93-2.15,7.33c-0.93,2.51-1.72,5.07-2.6,7.6
		c-0.41,1.17-0.86,2.33-1.32,3.48c-0.12,0.3-0.33,0.56-0.52,0.82c-0.13,0.18-0.58,0.19-0.71,0c-0.23-0.31-0.5-0.62-0.61-0.98
		c-1.01-3.26-2.62-6.26-4.14-9.28c-1.41-2.8-2.86-5.58-4.48-8.27c-1.15-1.92-1.94-4.01-1.78-6.32c0.05-0.68-0.16-1.29-0.38-1.91
		c-1.2-3.46-2.19-6.98-3.16-10.51c-0.55-1.99-0.95-2.51-2.99-3.99c-0.04,0.19-0.15,0.39-0.1,0.53c1.27,3.51,2.13,7.13,3.23,10.68
		c1.05,3.37,2.12,6.73,2.97,10.15c0.09,0.38,0.23,0.75,0.27,1.14c0.03,0.24-0.07,0.49-0.13,0.78c-0.27-0.05-0.52-0.03-0.61-0.14
		c-0.29-0.35-0.55-0.73-0.78-1.12c-1.77-3.05-3.52-6.12-5.29-9.17c-0.43-0.74-0.74-1.52-0.92-2.36c-0.65-3-1.38-5.98-1.99-8.99
		c-0.38-1.89-1.21-3.54-2.24-5.2c-0.22,0.18-0.46,0.3-0.47,0.42c-0.02,0.45-0.01,0.91,0.08,1.35c0.52,2.43,1.08,4.84,1.61,7.27
		c0.04,0.18,0.01,0.37,0.01,0.57c-0.4-0.27-0.77-0.53-1.15-0.75c-0.08-0.05-0.26,0-0.35,0.06c-0.09,0.07-0.2,0.24-0.17,0.32
		c0.12,0.36,0.24,0.74,0.44,1.06c1.21,1.95,2.06,4.05,2.89,6.16c-0.78,0.37-0.94-0.64-1.66-0.53c0.05,0.43,0.06,0.88,0.17,1.3
		c0.46,1.84,0.61,3.74,1.29,5.53c0.21,0.55,0.35,1.12,0.1,1.7c-0.4-0.01-0.58-0.31-0.72-0.59c-0.85-1.69-1.67-3.4-2.51-5.09
		c-0.32-0.64-0.69-1.26-1.04-1.88c-0.45-0.8-0.69-1.64-0.78-2.58c-0.13-1.42-0.47-2.83-0.75-4.24c-0.52-2.63-1.06-5.25-1.58-7.88
		c-0.14-0.7-0.14-1.44-0.35-2.12c-0.32-1.05,0.02-1.93,0.52-2.8c0.19-0.34,0.46-0.63,0.75-1.03c-0.2-0.42-0.37-0.92-0.65-1.34
		c-1.02-1.51-2.09-2.99-3.14-4.48c-0.39,0.08-0.26,0.4-0.2,0.6c0.32,1.13,0.68,2.25,1.04,3.41c-0.32,1.37-0.22,2.82-0.07,4.24
		c0.38,3.57,0.9,7.12,1.63,10.64c0.2,0.96,0.39,1.92,0.53,2.89c0.07,0.51,0.01,1.04,0.01,1.65c-0.22,0.15-0.48,0.32-0.83,0.57
		c-0.57-1.63-0.99-3.19-1.4-4.75c-0.21-0.82-0.43-1.64-0.66-2.46c-0.09-0.31-0.18-0.64-0.33-0.92c-0.31-0.55-0.79-0.87-1.44-0.83
		c-0.62,0.04-0.91,0.44-1.05,0.99c0.23,0.75,0.48,1.49,0.68,2.25c0.52,1.95,1.01,3.9,1.51,5.84c-0.37,0.26-0.53-0.03-0.66-0.19
		c-0.88-1.05-1.82-2.07-2.58-3.2c-0.5-0.74-0.74-1.66-1.09-2.5c-0.17-0.42-0.29-0.88-0.92-1.01c-0.58,0.64,0.14,1.52-0.26,2.24
		c-0.3,0.22-0.61,0.45-0.88,0.65c-0.95-0.3-1.24-1.21-1.95-1.79c-0.07,0.21-0.21,0.39-0.17,0.52c0.52,2.02,1.04,4.04,1.62,6.04
		c0.23,0.81,0.63,1.57,0.92,2.37c0.3,0.82-0.1,1.34-0.77,1.76c-1.53-2.36-2.62-4.86-3.71-7.37c-0.24-0.54-0.46-1.08-0.75-1.6
		c-0.86-1.54-1.77-3.05-2.61-4.6c-0.59-1.09-1.44-1.83-2.58-2.25c-1.31,0.05-1.77,0.96-2.05,1.99c-0.42,0.03-0.52-0.21-0.56-0.46
		c-0.16-0.85-0.15-1.7,0.16-2.51c0.79-2.08,1.06-4.3,1.65-6.43c0.18-0.64,0.29-1.28,0.07-1.93c-0.06-0.16-0.19-0.3-0.35-0.55
		c-0.66,0.75-0.49,1.68-0.81,2.43c-0.32,0.77-0.5,1.61-0.8,2.39c-0.3,0.78-0.67,1.53-1.13,2.56c0-1,0-1.71,0-2.43
		c-0.31-0.42-0.57,0.11-0.83,0.07c-0.36-0.06-0.7-0.24-1.14-0.39c-0.09,0.28-0.35,0.65-0.31,0.99c0.13,0.93-0.28,1.64-0.77,2.34
		c-0.3,0.43-0.58,0.86-0.86,1.28c-0.43,0.11-0.63-0.16-0.8-0.44c-0.17-0.28-0.27-0.6-0.77-0.67c-0.32,0.41-0.64,0.9-1.04,1.32
		c-0.15,0.15-0.49,0.25-0.69,0.2c-0.29-0.08-0.29-0.44-0.17-0.66c0.53-0.98,0.92-2.02,1.2-3.1c0.49-1.9,0.98-3.79,1.47-5.69
		c0.28-1.11,0.56-2.22,0.93-3.7c0.14,1.21,0.24,2.03,0.37,3.08c0.25-0.31,0.43-0.43,0.45-0.57c0.21-1.81,0.39-3.63,0.59-5.44
		c0.04-0.32,0.11-0.64,0.23-0.93c0.14-0.36,0.83-0.41,0.98-0.06c0.35,0.77,0.66,1.56,0.95,2.35c0.18,0.49,0.29,1,0.47,1.49
		c0.06,0.15,0.24,0.26,0.47,0.49c0.22-1.08,0.48-2.01,0.6-2.97c0.26-2.07,0.74-4.1,0.67-6.22c-0.07-2.42-0.02-4.84-0.02-7.34
		c0.46,0.16,0.5,0.54,0.65,0.84c0.6,1.16,1.21,2.32,1.85,3.45c0.4,0.7,1.03,0.93,1.64,0.7c0.64-0.24,0.97-0.72,0.87-1.36
		c-0.07-0.45-0.2-0.89-0.35-1.32c-1.01-2.83-1.57-5.8-2.63-8.61c-0.32-0.85-0.42-1.78-0.57-2.68c-0.05-0.31,0-0.65,0.08-0.96
		c0.14-0.5,0.89-0.76,1.29-0.45c0.3,0.24,0.57,0.53,0.82,0.83c0.58,0.73,1.33,1.22,2.06,1.65c0.51-0.25,0.37-0.61,0.28-0.88
		c-0.54-1.54-1.07-3.09-1.67-4.61c-0.76-1.95-1.6-3.86-2.38-5.8c-0.21-0.53-0.56-1.06-0.32-1.69c0.4-0.38,0.86-0.28,1.27-0.09
		c0.47,0.21,0.9,0.52,1.35,0.79c0.27,0.17,0.53,0.36,0.99,0.19c-0.16-0.94-0.49-1.85-0.88-2.73c-1.33-3.05-2.68-6.1-4.04-9.14
		c-0.43-0.95-0.97-1.85-1.38-2.81c-0.49-1.14-0.92-2.3-1.32-3.47c-0.14-0.42-0.21-0.91,0.37-1.25c0.11,0.1,0.26,0.19,0.37,0.32
		c0.87,1.06,1.79,2.09,2.6,3.19c1.04,1.42,2.03,2.89,2.96,4.38c0.34,0.54,0.56,1.2,0.67,1.83c0.21,1.23,0.42,2.44,1.42,3.32
		c0.78,1.58,1.58,3.15,2.33,4.74c0.86,1.83,1.67,3.69,2.51,5.53c0.05,0.1,0.18,0.17,0.34,0.32c0.08-0.17,0.22-0.33,0.21-0.46
		c-0.2-1.55-0.42-3.11-0.64-4.66c-0.19-1.36-0.38-2.72-0.6-4.07c-0.3-1.87-0.7-3.72-1.39-5.49c-0.48-1.21-1.03-2.4-1.58-3.59
		c-0.69-1.48-1.38-2.96-1.57-4.64c-1.68-1.2-2.85-2.87-4.21-4.36c-0.39-0.43-0.66-0.96-0.94-1.47c-0.06-0.11,0.07-0.33,0.14-0.63
		c1.42,0.98,2.88,1.66,4.16,2.7c1.47,1.19,2.98,2.36,4.6,3.33c1.56,0.94,3.32,1.51,5.13,1.86c0.17,0.03,0.36-0.09,0.61-0.16
		c-0.35-0.86-1.06-1.35-1.66-1.92c-0.75-0.71-1.19-1.55-1.28-2.57c-0.02-0.18,0.05-0.37,0.08-0.58c0.55-0.31,1,0.2,1.5,0.15
		c0.44-0.04,0.88-0.05,1.3-0.07c0.04-0.23,0.11-0.4,0.06-0.46c-0.98-1.13-1.79-2.39-2.82-3.49c-0.88-0.94-1.58-2.08-2.29-3.17
		c-0.51-0.78-0.42-1.38,0.15-2.33c0.12-0.02,0.27-0.09,0.37-0.04c0.53,0.25,1.09,0.47,1.56,0.81c0.96,0.68,1.9,1.39,2.78,2.17
		c1.38,1.21,2.89,2.2,4.44,3.17c0.83,0.52,1.64,1.08,2.47,1.6c0.32,0.2,0.66,0.42,1.14,0.24c-0.04-0.16-0.04-0.38-0.14-0.49
		c-1.2-1.3-2.45-2.51-3.91-3.54c-1.54-1.08-2.91-2.42-4.37-3.62c-0.6-0.5-1.19-1.04-1.86-1.42c-1.78-0.98-3.41-2.19-5.04-3.38
		c-0.84-0.61-1.53-1.35-1.93-2.4c-0.34-0.9-0.98-1.69-1.52-2.5c-0.83-1.25-1.7-2.47-2.53-3.71c-0.55-0.81-1.04-1.66-1.6-2.46
		c-1.61-2.3-2.9-4.81-4.66-7.02c-0.28-0.35-0.46-0.79-0.62-1.21c-0.64-1.78-1.27-3.57-1.87-5.36c-0.12-0.36-0.13-0.75-0.18-1.09
		c0.31-0.3,0.53-0.1,0.75,0.03c0.57,0.32,1.12,0.66,1.69,0.98c0.57,0.32,1.16,0.58,1.86,0.54c0.42-0.75,0.17-1.56,0.28-2.32
		c0.1-0.7,0.27-1.39,0.39-2c0.41-0.18,0.58-0.03,0.78,0.17c0.89,0.94,1.82,1.84,2.48,2.99c0.35,0.6,0.93,1.07,1.39,1.57
		c0.43-0.2,0.33-0.43,0.21-0.66c-0.27-0.52-0.55-1.04-0.8-1.57c-0.31-0.68-0.36-1.38-0.03-2.12c0.6-0.32,1.45-0.11,1.94-0.86
		c0.06-0.3-0.23-0.51-0.47-0.69c-0.95-0.77-1.26-1.79-1.25-2.96c0.01-0.32,0.03-0.64,0.06-1.02c0.66-0.31,1.29-0.6,1.9-0.88
		c0.1-0.98-1.13-1.46-0.7-2.43c1.4-0.81,1.4-0.81,3.63-0.7c0.12-0.51,0.12-0.51-0.14-1.03c-0.12-0.05-0.24-0.14-0.35-0.13
		c-0.59,0.05-1.17,0.13-1.75,0.18c-0.69,0.06-1.29-0.1-1.82-0.77c0.13-0.29,0.2-0.71,0.44-0.94c0.37-0.36,0.84-0.61,1.3-0.86
		c0.59-0.31,1.1-0.7,1.44-1.29c0.19-2.17-0.23-4.3-0.6-6.41c-0.28-1.58-0.38-3.25-1.18-4.73c-0.19-0.08-0.38-0.23-0.55-0.21
		c-2.46,0.31-4.91,0.65-7.37,0.95c-0.84,0.1-1.69,0.12-2.54,0.18c-0.4,0.03-0.79,0.08-0.99,0.62c0.53,0.37,1.16,0.52,1.78,0.6
		c2.72,0.34,5.37,1.05,8.04,1.65c0.55,0.13,1.16,0.25,1.52,0.85c-0.39,0.63-1.12,0.64-1.7,0.82c-1.87,0.59-3.76,1.08-5.64,1.64
		c-0.35,0.1-0.67,0.33-0.96,0.48c0.09,1.06,0.74,1.62,1.42,2.12c1.26,0.93,2.55,1.83,3.82,2.74c0.21,0.15,0.41,0.29,0.86,0.6
		c-6.35,0.03-12.42-0.13-18.52,0.15c-0.25-0.52-0.23-0.84,0.16-1.04c1.06-0.52,2.06-1.12,2.9-1.86c-0.03-0.41-0.26-0.55-0.52-0.56
		c-0.64-0.03-1.29-0.01-1.9-0.01c-0.64-0.48-0.61-1.06-0.29-1.6c0.49-0.84,1-1.7,1.63-2.43c0.69-0.81,1.15-1.74,1.68-2.64
		c0.41-0.71,0.36-1.47,0.29-2.26c-0.83,0.04-1.09,1.17-2.07,0.73c-0.21-0.52-0.45-1.12-0.7-1.75c-0.44,0.01-0.4,0.43-0.48,0.66
		c-0.87,2.46-1.74,4.92-2.22,7.49c-0.09,0.51-0.29,0.85-0.79,1.01c-0.37-0.09-0.48-0.4-0.52-0.72c-0.08-0.58-0.12-1.17-0.14-1.76
		c-0.03-0.55-0.29-0.98-0.52-1.47c-0.57,0.25-0.85,0.67-1.15,1.08c-1.36,1.83-2.62,3.74-4.38,5.23c-0.62,0.52-0.75,1.19-0.56,2
		c1.24,1.45,2.48,2.96,3.78,4.43c0.88,0.99,1.53,2.1,1.99,3.32c0.18,0.48,0.25,1.5,0.17,2.39c-0.51,0.15-1.05,0.31-1.55,0.45
		c-0.37,0.5-0.21,1.31,0.3,1.57c0.23,0.12,0.48,0.2,0.73,0.26c1.14,0.27,2.29,0.51,3.43,0.79c0.63,0.15,1.24,0.36,1.8,0.52
		c0.12,0.4-0.02,0.64-0.26,0.75c-0.35,0.16-0.74,0.26-1.11,0.37c-0.82,0.24-1.58,0.6-2.34,1.1c-0.33,0.6-0.58,1.24-0.52,1.9
		c0.41,0.33,0.72,0.12,1.01,0.04c2.57-0.71,5.14-1.44,7.72-2.15c0.31-0.08,0.64-0.12,0.96-0.12c0.41-0.01,0.73,0.52,0.51,0.84
		c-0.66,0.96-1.35,1.9-2.03,2.85c-0.52,0.73-1.23,1.14-2.13,1.23c-0.25,0.02-0.51,0.11-0.74,0.22c-0.33,0.14-0.46,0.7-0.28,1.03
		c0.27,0.5,0.7,0.73,1.24,0.85c1.39,0.3,2.78,0.64,4.25,0.98c-0.96,1.49-2.57,1.99-3.9,2.77c-1.84-0.08-1.84-0.08-2.43,0.31
		c0.15,0.43,0.56,0.51,0.92,0.63c0.93,0.3,1.87,0.57,2.8,0.87c0.56,0.18,1.12,0.38,1.48,1c-0.77,0.81-1.89,0.7-2.83,1.04
		c-0.98,0.35-2,0.58-2.96,0.85c-1.98-0.55-3.92-1.1-5.8-1.62c-0.58-2.02-0.29-3.99-0.38-5.76c-0.48-0.76-1.03-0.82-1.65-0.66
		c-0.76,0.2-1.53,0.38-2.25,0.66c-1.25,0.48-2.42,0.35-3.58-0.27c-0.49-1.29-0.38-1.64,0.72-2.17c0.35-0.17,0.72-0.3,1.08-0.47
		c0.35-0.16,0.72-0.31,1.04-0.52c0.21-0.14,0.39-0.37,0.49-0.6c0.18-0.4,0.29-0.83,0.45-1.28c-1.35-0.49-2.37,0.31-3.44,0.65
		c-1.04,0.33-2,0.92-2.97,1.38c-0.63-0.32-0.49-0.84-0.34-1.22c0.31-0.79,0.65-1.55,0.8-2.4c0.08-0.45,0.52-0.94,0.93-1.19
		c0.89-0.54,1.23-1.3,1.3-2.27c0.14-2.12,0.91-4.06,1.72-5.99c0.3-0.72,0.54-1.47,0.77-2.21c0.04-0.13-0.11-0.32-0.22-0.63
		c-0.7,0.77-1.05,1.61-1.53,2.35c-0.5,0.76-0.86,1.61-1.29,2.42c-0.4,0.75-0.83,1.48-1.2,2.24c-0.4,0.82-0.71,1.69-1.12,2.5
		c-0.4,0.8-0.57,1.73-1.26,2.46c-0.66-0.72-0.55-1.5-0.49-2.28c0.08-0.91,0.15-1.82,0.18-2.73c0.02-0.72-0.17-1.4-0.47-2.03
		c-0.74,0.07-1.22,0.41-1.41,1.01c-0.31,0.97-1.09,1.6-1.54,2.45c-0.43-0.19-0.23-0.45-0.18-0.65c0.29-1.34,0.61-2.67,0.89-4.01
		c0.09-0.44,0.11-0.9-0.23-1.36c-1.18,0.41-1.79,1.52-2.74,2.16c-0.91,0.6-1.57,1.58-2.62,1.91c-0.63-0.25-0.62-0.74-0.55-1.18
		c0.17-1.09,0.4-2.18,0.61-3.26c0.08-0.44,0.16-0.89,0.27-1.44c-0.27,0.03-0.46,0-0.59,0.08c-1.33,0.82-2.64,1.65-4.03,2.52
		c-0.22-0.27-0.45-0.43-0.51-0.64c-0.1-0.37-0.08-0.78-0.13-1.16c-0.16-1.36-0.33-2.71-0.51-4.07c-0.01-0.11-0.14-0.21-0.22-0.32
		c-0.52-0.17-0.89,0.17-1.2,0.46c-0.67,0.62-1.29,1.3-1.91,1.97c-0.31,0.34-0.59,0.69-1.1,0.68c-0.26-0.49-0.36-1.03-0.1-1.51
		c0.76-1.39,1.03-2.95,1.58-4.41c0.14-0.37,0.31-0.72,0.46-1.08c0.37-0.87,0.94-1.56,1.72-2.08c0.43-0.29,0.86-0.59,1.25-0.94
		C142.17,84.21,142.15,83.77,141.8,83.16z M221.9,211.63c-0.2-0.35-0.31-0.59-0.47-0.79c-0.96-1.25-1.67-2.65-2.33-4.07
		c-0.46-0.97-0.7-1.96-0.35-3.01c0.04-0.12,0.15-0.21,0.27-0.37c0.27,0,0.58,0,0.93,0c0.21,0.22,0.46,0.44,0.64,0.7
		c0.94,1.32,1.87,2.66,2.8,3.99c2.05,2.94,4.25,5.76,6.96,8.14c0.1,0.08,0.28,0.07,0.59,0.14c-0.7-1.33-1.36-2.45-2.19-3.45
		c-1.54-1.86-3.02-3.75-4.34-5.77c-0.92-1.41-1.48-2.89-1.36-4.59c0.02-0.34,0.14-0.65,0.49-0.77c0.4-0.13,0.79-0.05,1.08,0.26
		c0.22,0.23,0.38,0.53,0.54,0.81c0.36,0.61,0.66,1.27,1.07,1.85c1.25,1.75,2.54,3.48,4.08,4.99c0.08,0.08,0.24,0.07,0.36,0.1
		c0.32-0.21,0.64-0.42,1-0.65c0.26,0.11,0.49,0.21,0.73,0.31c0.8,0.32,0.78,1.34,1.53,1.77c0.14-0.11,0.38-0.21,0.41-0.34
		c0.08-0.39-0.28-2.32-0.47-2.65c-0.78-1.28-1.5-2.6-2.38-3.82c-1.01-1.41-1.58-2.98-2.06-4.61c-0.07-0.25-0.16-0.5-0.21-0.75
		c-0.02-0.11,0.04-0.23,0.08-0.43c0.28-0.01,0.59-0.03,0.85-0.04c0.63,0.79,1.22,1.48,1.77,2.21c0.51,0.67,0.91,1.45,1.49,2.05
		c0.61,0.63,0.64,1.69,1.7,2.22c-0.31-2.13-1.74-3.86-1.32-5.89c0.63-0.33,0.98-0.03,1.34,0.26c0.35,0.27,0.69,0.58,1.29,0.37
		c-0.08-0.29-0.11-0.55-0.22-0.76c-0.48-0.93-1.02-1.83-1.47-2.77c-0.74-1.53-1.6-2.99-2.57-4.39c-0.97-1.39-1.78-2.88-2.46-4.44
		c-0.27-0.62-0.35-1.25-0.33-1.91c0.03-0.73,0.38-1.22,1.12-1.41c0.74,0.14,0.97,0.82,1.42,1.27c0.22,0.22,0.42,0.61,0.94,0.49
		c-0.56-1.91-1.41-3.6-2.25-5.29c-0.14-0.28-0.36-0.56-0.61-0.75c-1.47-1.09-2.69-2.48-4.31-3.38c-1.16-0.64-1.83-1.83-2.76-2.74
		c-0.43-0.42-0.06-1.24,0.55-1.39c0.52-0.13,1.01-0.1,1.54,0.06c0.74,0.22,1.52,0.34,2.29,0.49c0.1,0.02,0.22-0.1,0.38-0.18
		c-0.01-0.16,0.02-0.36-0.05-0.52c-0.19-0.42-0.53-0.71-0.9-1c-1.6-1.23-3.15-2.52-4.47-4.08c-0.64-0.76-1.5-1.35-2.64-1.42
		c0.37,1.34-0.03,2.35-0.92,3.26c-0.62,0.01-1.06-0.77-1.73-0.52c-0.04,0.11-0.1,0.19-0.08,0.22c0.39,0.75,0.71,1.55,1.19,2.22
		c1.51,2.12,3.05,4.21,4.73,6.2c1.47,1.75,2.44,3.83,3.69,5.74c0.03,0.05,0.03,0.13,0.05,0.19c-0.09,0.55-0.32,0.99-0.93,1.21
		c-0.87-0.51-1.21-1.48-1.81-2.23c-0.61-0.76-1.13-1.6-1.72-2.38c-0.6-0.78-1.25-1.5-1.85-2.28c-0.64-0.82-1.27-1.66-1.87-2.51
		c-0.57-0.8-1.03-1.67-1.66-2.42c-0.61-0.72-0.77-1.78-1.73-2.38c-0.07,0.3-0.21,0.52-0.15,0.64c0.53,0.97,0.8,2.07,1.29,3.04
		c0.94,1.88,1.5,3.88,2.22,5.83c0.43,1.15,0.75,2.34,1.11,3.5c0.65,0.11,1.22,0.21,1.73,0.3c1.08,1.22,1.64,2.63,2.09,4.05
		c0.48,1.51,1.1,2.93,1.87,4.29c0.51,0.92,0.91,1.87,1.22,2.88c0.48,1.55,0.98,3.1,1.59,4.61c0.46,1.15,1.05,2.24,1.36,3.45
		c0.18,0.69,0.52,1.34,0.78,2c0.1,0.24,0.22,0.47,0.3,0.72c0.14,0.48,0.26,0.97,0.39,1.48c-0.42,0.04-0.5-0.25-0.64-0.43
		c-1.59-2.08-2.68-4.46-4.08-6.67c-0.07-0.11-0.1-0.24-0.15-0.36c-0.98-2.27-1.88-4.58-3.28-6.65c-0.54-0.8-0.88-1.74-1.26-2.64
		c-0.2-0.47-0.3-0.98-0.44-1.45c-0.39-0.09-0.69-0.16-1-0.23c-0.09-0.18-0.22-0.35-0.27-0.53c-0.37-1.4-0.99-2.69-1.76-3.91
		c-0.38-0.6-0.69-1.26-0.99-1.91c-0.65-1.42-1.26-2.87-1.91-4.29c-0.24-0.53-0.52-1.05-0.81-1.56c-0.07-0.13-0.2-0.38-0.48-0.04
		c0.47,1.63,0.88,3.34,1.47,4.98c0.95,2.65,1.56,5.36,1.89,8.14c0.02,0.14-0.14,0.31-0.21,0.46c-0.17-0.07-0.33-0.08-0.4-0.17
		c-0.21-0.24-0.43-0.5-0.57-0.78c-0.57-1.1-0.92-2.29-1.3-3.47c-0.6-1.86-1.3-3.7-1.9-5.56c-0.34-1.05-0.61-2.13-0.88-3.21
		c-0.31-1.23-0.77-2.34-1.8-3.17c-0.34-0.27-0.52-0.75-0.8-1.1c-0.1-0.12-0.3-0.15-0.54-0.27c0.07,1.2,0.14,2.29,0.21,3.38
		c0.05,0.72,0.11,1.43,0.15,2.15c0.05,0.87,0.28,1.7,0.74,2.41c1.21,1.88,1.95,3.97,2.9,5.97c0.36,0.76,0.66,1.56,0.91,2.37
		c0.37,1.19,0.82,2.33,1.4,3.43c0.36,0.68,0.58,1.44,0.83,2.18c0.05,0.14-0.07,0.34-0.13,0.58c-0.34-0.18-0.66-0.29-0.9-0.48
		c-0.3-0.24-0.56-0.55-0.81-0.85c-0.21-0.25-0.36-0.55-0.58-0.79c-0.22-0.24-0.27-0.73-0.77-0.64c-0.03,0.1-0.08,0.17-0.06,0.22
		c1.03,3.57,1.54,7.28,2.82,10.78c0.09,0.24,0.17,0.5,0.19,0.76c0.18,1.85,1.23,3.27,2.34,4.65c0.82,1.01,1.73,1.95,2.62,2.9
		c0.26,0.28,0.58,0.51,0.9,0.74C221.43,211.81,221.59,211.71,221.9,211.63z M166.72,78.89c0.23-0.14,0.43-0.21,0.55-0.35
		c1.01-1.19,2-2.4,3.02-3.57c0.62-0.71,0.97-1.52,1.12-2.44c0.52-3.21,1.06-6.42,1.58-9.63c0.04-0.27-0.05-0.51-0.47-0.61
		c-0.46,0.45-0.95,0.97-1.49,1.43c-0.42,0.36-0.83,0.82-1.61,0.69c-0.03-0.52-0.08-1.03-0.08-1.54c0-0.32,0.16-0.65,0.13-0.96
		c-0.05-0.47-0.03-1.01-0.56-1.44c-0.26,0.31-0.51,0.53-0.65,0.8c-1.35,2.67-2.75,5.32-3.87,8.09c-0.17,0.42-0.35,0.86-0.36,1.3
		c-0.03,1.3,0,2.6,0.04,3.9c0.01,0.24,0.13,0.48,0.28,1.02c0.35-1.36,0.69-2.4,1.29-3.29c0.94,0.12,1.12,0.23,1.16,0.79
		c0.09,1.3,0.08,2.61-0.17,3.89C166.5,77.62,166.43,78.23,166.72,78.89z M210.67,197.69c0.39-1.06,0.26-1.92-0.17-2.73
		c-1.41-2.6-2.12-5.44-2.81-8.28c-0.46-1.89-1.01-3.75-1.61-5.59c-0.08-0.25-0.18-0.61-0.57-0.64c-0.04,0.07-0.1,0.13-0.09,0.18
		c0.52,3.91,0.98,7.84,1.97,11.68c0.14,0.56,0.36,1.12,0.66,1.61c0.63,1.06,1.33,2.08,2.01,3.11
		C210.19,197.22,210.39,197.38,210.67,197.69z M115.79,79.58c0.38,0.44,0.72,0.83,1.05,1.22c0.04-0.05,0.09-0.1,0.08-0.09
		c1.56-3.13,2.67-6.4,4.47-9.35c0.12-0.2,0.23-0.48-0.16-0.77c-0.59,0.26-1.26,0.5-1.88,0.83c-0.68,0.37-1.32,0.81-1.94,1.2
		c-0.34,0.71-0.64,1.35-0.9,1.9c0.04,0.44,0.14,0.77,0.08,1.08C116.37,76.88,116.09,78.14,115.79,79.58z M221.46,159.34
		c0.22,0.19,0.36,0.33,0.51,0.44c2.43,1.84,4.88,3.66,6.94,5.94c0.21,0.23,0.5,0.42,0.78,0.55c0.13,0.06,0.34-0.04,0.63-0.08
		c-0.21-0.73-0.4-1.4-0.51-1.79c-0.55-0.65-0.95-1.07-1.28-1.54c-1.06-1.49-2.36-2.77-3.66-4.03c-0.9-0.87-2.05-0.96-3.03-0.3
		C221.63,158.67,221.59,159.05,221.46,159.34z M158.84,75.44c-0.49,0.63-0.53,1.22-0.59,1.8c-0.36,3.45-0.1,6.9,0.03,10.35
		c0.03,0.71,0.15,1.42,0.27,2.12c0.02,0.13,0.27,0.32,0.42,0.31c0.15,0,0.4-0.18,0.42-0.31c0.11-0.57,0.16-1.16,0.2-1.74
		c0.04-0.58,0-1.17,0.06-1.76c0.25-2.61,0.34-6.56,0.17-9.44C158.92,76.84,159.25,75.94,158.84,75.44z M199.87,119.04
		c0.21,1.28,0.72,1.97,1.1,2.7c0.49,0.92,0.97,1.86,1.62,2.65c2.58,3.12,4.93,6.38,6.93,9.91c0.25,0.44,0.64,0.8,1,1.17
		c0.08,0.08,0.32,0.01,0.56,0.01c-0.09-0.32-0.12-0.59-0.25-0.8c-0.68-1.11-1.39-2.2-2.07-3.31c-0.61-0.99-1.33-1.94-1.73-3.02
		c-0.42-1.13-1.01-2.1-1.81-2.97c-0.26-0.29-0.53-0.58-0.76-0.89c-0.9-1.2-1.77-2.41-2.67-3.6
		C201.33,120.27,200.84,119.67,199.87,119.04z M125.78,88.56c-0.52,0.12-0.67,0.12-0.76,0.18c-1.31,0.95-2.64,1.89-3.93,2.88
		c-0.72,0.55-1.39,1.17-2.06,1.78c-0.18,0.17-0.34,0.42-0.38,0.66c-0.04,0.22,0.03,0.5,0.15,0.69c0.07,0.11,0.37,0.17,0.52,0.12
		c1.16-0.41,2.27-0.95,3.4-1.43c1.05-0.44,1.61-1.02,1.5-2.17c-0.02-0.19,0.06-0.38,0.09-0.58c0.25-0.3,0.51-0.6,0.73-0.91
		C125.24,89.48,125.42,89.15,125.78,88.56z M183.63,65.65c1.31-0.36,2.45-0.92,3.53-1.6c0.49-0.3,0.69-0.75,0.82-1.26
		c0.15-0.59-0.06-0.88-0.91-1.23C185.77,62.76,184.67,64.17,183.63,65.65z M186.73,73.98c0.72,0.05,1.3,0.11,1.87,0.11
		c0.85,0,1.7,0.02,2.54-0.09c0.43-0.05,0.85-0.32,1.22-0.57c0.18-0.12,0.33-0.45,0.31-0.67c-0.01-0.21-0.26-0.41-0.38-0.57
		C190.02,72.48,188.15,73.07,186.73,73.98z M164.28,97.57c-0.72,1.93-1.54,3.86-1.57,6.01c0.48,0.04,0.7-0.15,0.84-0.47
		c0.63-1.35,1.05-2.77,1.41-4.21c0.07-0.3,0.03-0.64-0.04-0.95C164.87,97.68,164.65,97.53,164.28,97.57z M84.13,115.49
		c1.43,0.33,2.62,0.6,3.82,0.86c0.04,0.01,0.1-0.06,0.15-0.1c-0.55-0.95-1.58-2.08-2.83-3.08
		C84.92,113.88,84.58,114.57,84.13,115.49z M189.84,66.76c-1.4,0.86-2.65,1.9-4.02,3.22c1.53-0.1,2.59-0.64,3.59-1.35
		c0.26-0.18,0.5-0.41,0.72-0.64C190.36,67.73,190.27,67.32,189.84,66.76z M123.39,74.66c1.17-0.84,1.89-1.84,2.71-2.73
		c0.15-0.16,0.15-0.46,0.2-0.65c-0.55-0.6-1.07-0.61-1.7-0.15C124.09,72.14,123.54,73.22,123.39,74.66z M96.8,106.85
		c0,1.34,1.03,2.23,1.35,3.4c0.1,0.36,0.35,0.69,0.57,1c0.1,0.14,0.31,0.2,0.57,0.37c0.19-1.19-0.47-2.08-0.88-2.96
		C98.11,107.99,97.88,107.03,96.8,106.85z M203.68,168.36c-0.08,0.08-0.25,0.18-0.24,0.25c0.26,1.34,0.53,2.68,0.82,4.01
		c0.04,0.18,0.16,0.37,0.3,0.49c0.12,0.1,0.33,0.11,0.59,0.19c0-0.33,0.06-0.59-0.01-0.82c-0.38-1.31-0.79-2.61-1.2-3.9
		C203.91,168.48,203.77,168.43,203.68,168.36z M164.76,109.45c0.43-0.08,0.68-0.07,0.89-0.17c0.6-0.28,0.74-0.84,0.8-1.43
		c0.03-0.28-0.04-0.54-0.33-0.59c-0.15-0.03-0.39,0.07-0.49,0.2C165.22,107.96,164.91,108.52,164.76,109.45z M114.23,84.27
		c-0.97,1.29-1.18,2.39-0.45,3.68c0.18-0.2,0.43-0.36,0.47-0.55C114.43,86.46,114.53,85.51,114.23,84.27z M111.22,92.29
		c0.05-1.05,0.1-1.68,0.1-2.31c0-0.29-0.17-0.48-0.5-0.37C110.17,90.76,110.17,90.82,111.22,92.29z"/>
	<path d="M76.98,281.61c-0.45,0.35-0.75,0.59-1.04,0.82c-0.42-0.06-0.78-0.12-1.14-0.17c-0.06,0.16-0.17,0.3-0.13,0.39
		c0.29,0.65,0.57,1.31,0.92,1.93c1.03,1.82,2.02,3.66,2.5,5.73c0.24,1.02,0.52,2.02,0.79,3.03c0.1,0.38,0.21,0.75,0.31,1.12
		c-0.02,0.06-0.01,0.15-0.05,0.19c-0.22,0.23-0.45,0.45-0.67,0.66c-1.12-0.13-1.53-1.24-2.55-1.67c-0.02,0.35-0.12,0.61-0.04,0.82
		c0.18,0.49,0.52,0.93,0.64,1.43c0.57,2.39,2.39,3.82,4.06,5.35c0.14,0.12,0.35,0.17,0.52,0.25c0.5-0.75,0.5-0.75,0.53-1.59
		c-0.3,0-0.6,0-0.94,0c-0.32-0.67-0.14-1.27,0.17-1.87c0.54-1.04,1.03-2.11,1.61-3.13c0.78-1.38,1.32-2.83,1.67-4.36
		c0.06-0.24,0.16-0.48,0.28-0.83c0.22,0.16,0.39,0.23,0.48,0.36c0.88,1.3,1.72,2.62,2.62,3.91c0.56,0.8,1.2,1.55,1.79,2.33
		c0.47,0.62,0.91,1.26,1.4,1.93c-0.26,0.5-0.49,0.95-0.74,1.44c0.07,0.15,0.11,0.37,0.24,0.5c0.32,0.32,0.68,0.6,1.02,0.91
		c0.48,0.44,0.98,0.87,1.42,1.34c0.72,0.76,1.06,1.63,0.52,2.74c-24.91,0-49.85,0-74.94,0c0.52-1.49,1.59-2.42,1.74-3.77
		c0.1-0.9,0.19-1.79,0.28-2.64c-0.74-0.53-1.52-0.01-2.23-0.41c-0.36-0.55-0.43-1.17-0.14-1.81c0.87-1.9,1.75-3.8,2.65-5.68
		c0.16-0.35,0.46-0.63,0.67-0.95c1.04-1.59,1.75-3.32,2.05-5.16c-0.5-0.48-0.91-0.17-1.32-0.02c-0.36,0.13-0.72,0.27-1.04,0.39
		c-0.57-0.4-0.55-0.94-0.63-1.53c0.62-1.08,1.23-2.21,2.11-3.2c0.51-0.57,0.84-1.32,1.2-2.01c1.34-2.53,2.66-5.08,4-7.62
		c0.37-0.69,0.74-1.35,0.78-2.28c-0.56-0.02-1.05-0.06-1.53-0.05c-0.44,0.01-0.88,0.06-1.44,0.1c0.87-1.63,1.96-2.98,3.05-4.35
		c1.02-1.28,2.05-2.54,3.07-3.81c0.16-0.2,0.31-0.42,0.43-0.65c0.49-0.91,0.96-1.83,1.47-2.79c-0.21-0.13-0.39-0.32-0.52-0.29
		c-0.44,0.08-0.86,0.25-1.29,0.37c-0.42,0.12-0.85,0.21-1.26,0.31c-0.18-0.4,0.08-0.56,0.2-0.75c0.71-1.09,1.48-2.16,2.15-3.27
		c1.16-1.91,2.68-3.53,4.04-5.28c0.36-0.46,0.78-0.91,1.02-1.44c0.69-1.5,1.83-2.7,2.66-4.1c0.22-0.37,0.62-0.64,1.05-1.08
		c0.3,0.98,0.59,1.82,0.81,2.67c0.37,1.45,0.68,2.93,1.05,4.38c0.24,0.95,0.53,1.88,0.83,2.82c0.72,2.3,1.46,4.59,2.23,7.01
		c-0.31,0-0.51,0.05-0.64-0.01c-0.53-0.25-1.03-0.56-1.57-0.8c-0.45-0.2-1,0.17-0.97,0.65c0.04,0.65,0.11,1.3,0.26,1.93
		c0.31,1.33,0.69,2.65,1.04,3.98c0.28,1.07,0.54,2.15,0.81,3.22c0.43,1.65,0.89,3.28,1.69,4.79c0.18,0.34,0.29,0.7,0.42,1.01
		c-0.34,0.39-0.66,0.35-0.95,0.17c-0.66-0.41-1.31-0.85-1.89-1.23c-0.59,0.01-1.01,0.17-1.25,0.61c-0.23,0.42-0.22,0.91-0.04,1.33
		c0.78,1.86,1.59,3.72,2.83,5.23c0.48,0.17,0.73-0.06,0.96-0.29c0.45-0.47,0.92-0.93,1.32-1.44c0.99-1.3,1.93-2.62,2.89-3.94
		c0.08-0.11,0.16-0.21,0.21-0.33c0.17-0.37,0.28-0.76,0.04-1.12c-0.24-0.36-0.63-0.47-1.04-0.39c-0.37,0.08-0.73,0.23-1.1,0.34
		c-0.54-1.02-0.05-1.85,0.45-2.59c1.25-1.85,2.28-3.78,3-5.9c0.37-1.11,1-2.13,1.44-3.22c1.19-2.96,2.39-5.93,3.22-9.02
		c0.2-0.74,0.54-1.44,0.82-2.18c0.13,0.62,0.26,1.19,0.37,1.76c0.09,0.45,0.18,0.9,0.22,1.35c0.2,2.14,0.36,4.29,0.74,6.41
		c0.01,0.06,0.01,0.13,0.02,0.19c0.4,1.51,0.62,3.07,0.95,4.59c0.48,2.23,1.15,4.42,1.74,6.62c0.22,0.81,0.47,1.62,0.68,2.37
		c-0.27,0.58-0.56,0.99-1.25,0.97c-0.57-0.43-1.19-0.89-1.76-1.32c-0.54,0.34-0.39,0.77-0.3,1.11c0.42,1.64,0.88,3.28,1.34,4.91
		c0.16,0.57,0.4,1.11,0.52,1.68c0.08,0.36,0.01,0.75,0.01,1.22c-0.54,0-1.03,0-1.52,0c-0.1,0.25-0.25,0.44-0.22,0.6
		c0.22,1.09,0.44,2.18,0.75,3.24c0.32,1.1,1.28,1.5,2.33,1.04c0.24-0.1,0.5-0.22,0.66-0.41c1.14-1.34,2-2.85,2.96-4.39
		c-0.86-0.54-1.51,0.13-2.18,0.04c-0.46-0.42-0.43-0.94-0.26-1.45c0.1-0.3,0.3-0.58,0.46-0.86c1.19-2.17,2.39-4.35,3.58-6.52
		c0.57-1.03,1.13-2.07,1.7-3.09c0.41-0.74,0.81-1.48,1-2.33c0.2-0.88,0.73-1.62,1.46-2.46c0.35,0.92,0.63,1.63,0.71,2.4
		c0.23,2.15,0.76,4.23,1.38,6.29c0.19,0.62,0.3,1.27,0.42,1.91c0.3,1.61,0.77,3.16,1.41,4.67
		C76.52,280.24,76.71,280.86,76.98,281.61z"/>
	<path d="M269.3,304.88c-0.24,0.1-0.41,0.23-0.58,0.24c-0.59,0.03-1.18,0.04-1.76,0.04c-24.13,0-48.26,0-72.38,0
		c-0.59,0-1.18,0.01-1.76-0.04c-0.22-0.02-0.43-0.2-0.65-0.32c1.26-1.94,2.91-3.47,3.86-5.49c1.26-1.4,2.3-3.01,3.77-4.22
		c0.61-0.5,1.18-1.02,1.4-1.83c-0.86-0.77-1.7,0.61-2.56,0.03c3.02-3.7,5.97-7.43,8.31-11.75c0.55,0.57,0.63,1.16,0.66,1.79
		c0.11,2.03,0.4,4.03,0.81,6.01c0.17,0.83,0.38,1.65,0.52,2.49c0.16,0.96,0.3,1.93,0.38,2.9c0.06,0.72-0.05,0.84-0.92,1.63
		c-0.36-0.16-0.74-0.33-1.17-0.53c0.16,2.37,0.38,3.1,1.43,4.96c0.21-0.1,0.46-0.16,0.64-0.31c0.36-0.28,0.67-0.62,1.02-0.92
		c1.68-1.4,2.26-2.36,2.75-4.56c-0.15-0.27-0.37-0.31-0.65-0.2c-0.5,0.19-1,0.31-1.59,0c-0.36-0.54-0.42-1.14-0.06-1.77
		c0.03-0.06,0.08-0.1,0.11-0.16c1.11-3,2.29-5.97,3.61-8.88c0.16-0.35,0.2-0.74,0.28-1.06c-0.52-0.77-1.15,0.17-1.65-0.24
		c-0.04-0.11-0.14-0.24-0.1-0.33c0.69-1.76,1.31-3.54,2.35-5.16c0.52-0.81,0.81-1.77,1.12-2.7c0.31-0.93,0.64-1.85,1.1-2.72
		c0.54-1.03,1.04-2.08,1.68-3.35c1.36,4.8,2.06,9.53,4.19,13.84c-0.12,0.26-0.21,0.5-0.33,0.72c-0.1,0.17-0.24,0.31-0.39,0.51
		c-0.47-0.19-0.87-0.35-1.32-0.53c-0.06,0.25-0.18,0.44-0.14,0.59c0.12,0.5,0.24,1.03,0.48,1.49c0.5,0.99,1.1,1.93,1.62,2.91
		c0.26,0.49,0.65,0.8,1.11,1.07c0.69,0.4,1.32,0.21,1.6-0.5c0.19-0.48,0.34-0.99,0.49-1.48c0.37-1.25,0.74-2.5,1.1-3.76
		c0.13-0.44,0.14-0.89,0.04-1.3c-1.21-0.23-1.86,0.97-2.98,1c-0.3-0.8-0.21-1.58-0.05-2.34c0.74-3.38,1.33-6.79,2.43-10.08
		c0.12-0.35,0.17-0.73,0.28-1.21c-1.32,0.13-1.83,1.35-2.79,1.7c-0.6-0.36-0.76-0.88-0.6-1.39c0.3-0.92,0.35-1.89,0.88-2.77
		c0.83-1.35,1.01-2.95,1.28-4.49c0.02-0.13,0.02-0.26,0.03-0.39c0.24-2.61,0.9-5.14,1.44-7.69c0.12-0.57,0.21-1.18,0.83-1.47
		c0.34-0.05,0.44,0.23,0.56,0.44c1.48,2.61,2.95,5.23,4.41,7.85c0.22,0.4,0.41,0.82,0.59,1.24c0.61,1.37,1.25,2.73,2.15,3.95
		c0.23,0.31,0.41,0.67,0.54,1.03c0.17,0.45,0.1,0.92-0.18,1.31c-0.29,0.4-0.71,0.55-1.21,0.42c-0.11-0.03-0.24,0.04-0.37,0.07
		c-0.07,0.62,0.3,1.1,0.57,1.6c0.84,1.55,1.68,3.09,2.28,4.76c0.44,1.21,1.21,2.31,1.84,3.44c0.05,0.09,0.22,0.12,0.43,0.22
		c0.15-0.15,0.35-0.3,0.48-0.5c0.62-0.92,1.22-1.85,1.81-2.79c0.18-0.29,0.17-0.62-0.07-0.91c-0.23-0.28-0.53-0.36-0.87-0.31
		c-0.43,0.06-0.82,0.47-1.38,0.06c0.07-0.88,0.68-1.6,1.03-2.4c0.35-0.78,0.77-1.52,1.09-2.3c0.34-0.82,0.79-1.64,0.67-2.61
		c-0.76-0.26-1.57,0.53-2.26-0.22c-0.14-0.59,0.17-1.12,0.36-1.66c0.21-0.62,0.48-1.21,0.74-1.81c1.94-4.5,3.55-9.12,5.19-13.73
		c0.57-1.62,0.67-3.32,0.94-4.99c0.12-0.76,0.26-1.5,0.46-2.44c0.66,0.91,1.26,1.6,1.72,2.38c1.29,2.19,2.63,4.36,3.67,6.69
		c0.61,1.37,1.35,2.67,2.15,3.95c1.14,1.82,2.07,3.78,3.09,5.67c0.34,0.63,0.62,1.32,1.06,1.87c0.87,1.07,1.57,2.24,2.3,3.4
		c0.34,0.55,0.76,1.05,1.11,1.52c0.07,0.71-0.34,1.01-0.87,1.25c-0.78-0.38-1.32-1.25-2.27-1.29c-0.37,0.29-0.32,0.62-0.16,0.91
		c0.99,1.84,1.99,3.67,3,5.5c0.83,1.49,1.64,2.97,2.11,4.62c0.03,0.11,0,0.24,0,0.45c-1.2-0.28-2.4-1.21-3.66-0.02
		c0.44,1.05,0.85,2.06,1.29,3.07c0.44,1.02,0.97,2,1.37,3.03c0.77,1.95,1.7,3.81,2.64,5.67c0.59,1.16,1.04,2.38,1.6,3.69
		c-1.26,0.19-2.15-0.71-3.16-0.8c-0.34,0.21-0.33,0.49-0.24,0.73c0.81,1.99,1.37,4.08,2.52,5.94c0.65,1.05,1.1,2.22,1.61,3.35
		C269.27,304.34,269.26,304.61,269.3,304.88z"/>
	<path d="M81.32,178.45c0,0.33,0,0.65-0.01,0.98c-0.04,1.07-0.54,1.86-1.48,2.36c-0.22,0.12-0.44,0.24-0.65,0.36
		c0,0.7,0,1.32,0,2.03c0.35,0.36,0.91,0.15,1.4,0.25c0.43,0.09,0.85,0.26,1.25,0.39c0.03,0.43,0.05,0.75,0.06,1.06
		c-0.28,0.3-0.55,0.58-0.87,0.91c0.06,0.34,0.13,0.71,0.2,1.07c-0.3,1.13-1.48,1.18-2.2,1.85c-1.04-0.28-2.15-0.36-3.11-1
		c-0.24-0.16-0.64-0.08-0.81,0.35c0.08,0.56,0.58,0.81,0.96,1.12c0.71,0.59,1.38,1.2,1.76,2.06c0.34,0.76,1.06,1.1,1.73,1.37
		c-0.24,2.5-0.47,4.89-0.7,7.35c-0.4,0.77-1.51,0.95-1.85,1.85c0.51,1.52,1.72,3.8,2.72,5.16c0.51,0.15,0.71-0.14,0.81-0.57
		c0.1-0.4,0.02-0.76-0.19-1.12c-0.38-0.68-0.81-1.34-0.97-2.23c0.42-0.35,0.85-0.73,1.24-1.06c0.22,0.03,0.36,0.02,0.46,0.08
		c0.69,0.36,1.37,0.73,2.06,1.1c0.11,0.06,0.21,0.17,0.33,0.2c0.81,0.22,1.65,0.69,2.46,0.2c0.79-0.48,0.58-1.37,0.7-2.15
		c-0.52-0.46-1.01-0.89-1.52-1.34c0.02-0.53,0.51-0.67,0.85-0.92c0.36-0.28,0.73-0.54,1.13-0.77c0.31-0.18,0.85-0.09,1.08,0.22
		c0.64,0.88,1.49,1.61,1.72,2.78c0.12,0.6,0.57,1.13,0.84,1.64c-0.25,0.75-0.65,1.2-1.28,1.51c-1.58,0.78-3.13,1.62-4.69,2.43
		c-0.76,0.39-1.37,0.97-1.96,1.47c-0.06,0.85,0.51,1.07,0.93,1.37c2.4-0.4,4.33-1.6,6.28-2.79c1.88-1.16,3.82-2.24,5.46-3.91
		c0.44,0.14,0.92,0.29,1.46,0.46c-0.15,0.43-0.27,0.79-0.4,1.17c0.36,0.13,0.71,0.27,1.14,0.43c-0.15,0.96-0.78,1.48-1.51,1.92
		c-1.4,0.84-2.8,1.68-4.19,2.53c-0.61,0.38-1.21,0.77-1.8,1.19c-0.2,0.14-0.33,0.37-0.54,0.62c1.12,0.37,2.03-0.03,2.92-0.4
		c1.2-0.49,2.38-1.03,3.55-1.59c1.11-0.53,2.2-1.1,3.29-1.65c0.73,0.61,0.73,0.61,0.73,2.18c0.8,0.39,1.51-0.19,2.27-0.23
		c0.76-0.04,1.54-0.23,2.23,0.15c0.13,0.4-0.09,0.61-0.32,0.69c-0.61,0.21-1.24,0.42-1.88,0.53c-0.92,0.16-1.73,0.54-2.58,1
		c-0.27,0.72-0.55,1.45-0.8,2.19c-0.14,0.42,0.22,0.88,0.61,0.75c1.04-0.35,2.16-0.43,3.17-0.92c0.46-0.23,0.97-0.38,1.47-0.5
		c0.7-0.18,1.39-0.31,2.01-0.73c0.31-0.21,0.73-0.28,1.1-0.4c0.25-0.08,0.55-0.07,0.75-0.21c1.14-0.83,2.49-1.09,3.8-1.49
		c0.12-0.04,0.23-0.16,0.35-0.17c1.81-0.15,3.28-1.2,4.91-1.83c0.61-0.23,1.2-0.52,1.81-0.74c1.29-0.48,2.55-1.05,3.6-1.94
		c1.58-1.32,3.47-2.05,5.28-2.95c1.34-0.67,2.68-1.34,4.02-2.02c0.99-0.51,1.97-1.02,2.95-1.56c1.32-0.72,2.66-1.4,3.93-2.2
		c1.11-0.7,2.05-1.62,2.88-2.81c1.91-0.81,4.06-1.09,6.15-1.55c2.02-0.44,4.07-0.85,6.34-0.98c-0.76,1.07-1.65,1.67-2.62,2.16
		c-0.17,0.09-0.38,0.11-0.55,0.19c-0.4,0.19-0.62,0.57-0.57,0.94c0.06,0.45,0.39,0.68,0.77,0.8c0.3,0.09,0.64,0.12,0.96,0.13
		c2.67,0.02,5.34-0.14,8-0.37c1.1-0.09,2.18-0.38,3.28-0.56c0.51-0.08,1.02-0.11,1.99-0.21c-0.69,0.31-0.95,0.49-1.24,0.55
		c-1.42,0.28-2.74,0.84-4.05,1.44c-0.84,0.38-1.71,0.61-2.63,0.7c-2.66,0.23-5.33,0.46-7.98,0.81c-1.36,0.18-2.72,0.3-4.09,0.34
		c-1.53,0.05-2.94,0.52-4.2,1.37c-0.02,0.39,0.22,0.48,0.48,0.47c0.98-0.04,1.96-0.14,2.94-0.16c0.65-0.01,1.3,0.04,1.95,0.11
		c0.39,0.04,0.76,0.21,1.15,0.22c0.37,0.01,0.75-0.1,1.15-0.16c-0.42,0.76-0.59,1-1.12,1.2c-1.84,0.69-3.71,1.24-5.7,1.31
		c-0.39,0.01-0.77,0.09-1.15,0.14c-0.05,0.01-0.09,0.08-0.2,0.17c0.52,0.72,1.04,1.46,1.57,2.19c0.42,0.58,0.8,1.17,1.07,1.86
		c0.22,0.57,0.7,1.05,1.1,1.63c-0.23,0.12-0.39,0.26-0.55,0.26c-1.9-0.01-1.9-0.02-3.54-0.72c-0.73-0.31-1.42-0.67-1.87-1.36
		c-0.38-0.59-0.95-0.87-1.64-0.93c-0.78-0.06-1.56-0.16-2.34-0.18c-0.31-0.01-0.63,0.12-0.98,0.2c0.63,0.6,0.62,0.66,1.02,0.69
		c1.07,0.08,1.98,0.64,2.96,0.99c0.34,0.12,0.66,0.42,0.9,0.72c0.12,0.15,0.05,0.46,0.06,0.63c-0.66,0.61-1.71,0.25-2.07,1.15
		c0.03,0.49,0.45,0.64,0.79,0.78c1.93,0.8,3.85,1.63,5.89,2.12c0.82,0.2,1.64,0.4,2.48,0.61c0.25-0.3,0.46-0.72,0.8-0.9
		c0.31-0.16,0.78-0.13,1.15-0.05c1.86,0.37,3.73,0.6,5.61,0.79c0.75,0.08,1.48,0.4,1.83,1.01c1.06,1.86,2.66,3.21,4.07,4.75
		c0.04,0.05,0.05,0.12,0.08,0.18c-0.27,0.32-0.63,0.18-0.88,0.05c-1.44-0.77-2.87-1.55-4.27-2.39c-1.24-0.74-2.48-1.43-3.92-1.68
		c-0.26-0.04-0.52-0.05-0.78-0.1c-1.27-0.28-2.31,0.21-3.26,0.97c-0.41,0.32-0.76,0.72-1.18,1.03c-0.77,0.55-1.59,0.81-2.58,0.58
		c-1.07-0.25-2.18-0.34-3.28-0.51c-0.5,0.36-0.97,0.7-1.52,1.1c-0.4-0.09-0.9-0.09-1.27-0.31c-1.69-1-3.65-1.44-5.26-2.58
		c-0.25-0.18-0.6-0.26-0.91-0.32c-1.3-0.27-2.49-0.78-3.61-1.46c-1.42-0.86-3-1.23-4.57-1.66c-0.24-0.07-0.52-0.06-0.76,0
		c-0.69,0.19-1.4,0.34-2.04,0.65c-1.46,0.7-2.82,1.62-4.43,2.01c-1.04,0.82-2.34,1.12-3.48,1.74c-1.1,0.6-2.28,0.93-3.45,1.3
		c-1.5,0.48-2.87,1.22-4.26,1.78c-0.57,1.01-0.18,2.11-0.66,3.08c-0.46,0.93-0.64,1.99-1.29,2.84c-0.62,0.81-0.97,1.83-1.79,2.57
		c-0.88-1.09-1.23-2.3-1.69-3.44c-0.44-1.09-0.86-2.18-1.24-3.15c-0.71-0.52-1.39-0.4-2.03-0.4c-0.73,0-1.42-0.09-2.09-0.4
		c-0.35-0.17-0.74-0.25-1.12-0.37c-1.36-0.43-2.7-0.89-3.94-1.65c-0.43-0.27-0.99-0.33-1.45-0.55c-2.88-1.38-5.76-2.79-8.63-4.18
		c-0.06-0.03-0.12-0.05-0.17-0.09c-2.58-1.8-5.47-3.04-8.22-4.53c-1.06-0.58-1.92-1.32-2.62-2.29c-0.46-0.63-0.97-1.23-1.52-1.78
		c-1.24-1.26-2.45-2.54-3.33-4.08c-0.06-0.11-0.17-0.2-0.25-0.3c-1.97-2.39-3.12-5.24-4.41-8.01c-0.34-0.72-0.36-1.37,0.04-2.05
		c1.16-1.96,1.87-4.18,3.49-5.87c0.68-1.45,1.88-2.49,2.91-3.67c0.42-0.48,0.97-0.86,1.46-1.29c0.25-0.21,0.52-0.4,0.74-0.63
		c0.72-0.75,1.39-1.56,2.15-2.27c2.25-2.1,4.08-4.58,6.15-6.84c1.23-1.35,2.45-2.7,3.74-4c0.7-0.7,1.34-1.43,1.86-2.26
		c2.1-3.31,4.39-6.49,6.68-9.67c0.15-0.21,0.39-0.39,0.47-0.63c0.53-1.51,1.55-2.7,2.48-3.96c0.59-0.79,0.57-0.96,0.34-2.22
		c-1.47-0.25-2.24-1.45-3.08-2.49c-1.07-1.31-1.94-2.79-2.51-4.39c-0.33-0.95-0.74-1.82-1.43-2.53c-0.77-0.79-0.99-1.82-1.34-2.8
		c-0.04-0.12-0.01-0.26-0.01-0.39c0.01-0.53,0.72-0.94,1.15-0.66c0.27,0.18,0.51,0.4,0.76,0.61c0.2,0.17,0.39,0.34,0.6,0.53
		c1.09-0.31,2.08-0.7,2.93-1.46c0.53-0.47,1.19-0.8,1.8-1.19c0.41-0.26,0.85-0.3,1.44-0.05c0.2,0.35,0.5,0.77,0.7,1.24
		c0.39,0.9,0.71,1.82,1.08,2.73c0.54,1.33,1.08,2.65,1.64,3.97c0.15,0.36,0.49,0.38,0.89,0.29c0.38,1.05,0.62,2.08,0.25,3.22
		c-0.19,0.61-0.1,1.3-0.24,1.93c-0.29,1.31-0.32,2.68-1.11,3.88c-0.75,1.14-1.31,2.4-2.03,3.57c-1.08,1.73-2.4,3.24-3.73,4.76
		c-1.21,1.37-2.41,2.74-3.57,4.14c-1.37,1.66-2.56,3.45-3.67,5.28c-0.9,1.47-2.14,2.63-3.32,3.84c-0.64,0.65-1.32,1.26-1.9,1.96
		c-1.2,1.47-2.5,2.83-4.03,3.98c-0.42,0.31-0.8,0.68-1.14,1.07c-1.07,1.23-2.36,2.25-3.3,3.6c-0.22,0.31-0.55,0.56-0.88,0.77
		c-0.84,0.53-1.34,1.37-2.14,2.08c0.28,0.14,0.43,0.28,0.58,0.29c0.39,0.01,0.82-0.17,1.16-0.05c1.22,0.44,2.47,0.2,3.7,0.26
		c0.75,0.03,1.42-0.19,1.9-0.82c0.47-0.61,1.27-0.94,1.5-1.81c-0.42-0.65-1.44-1.13-0.59-2.26c0.2-0.05,0.51-0.13,0.82-0.21
		c1.15-0.27,2.26-0.62,3.29-1.22c0.74-0.42,1.53-0.74,2.25-1.2c1.07-0.69,2.24-1.02,3.48-1.18L81.32,178.45z M67.15,190.95
		c-0.17-0.11-0.28-0.24-0.39-0.24c-1.22-0.04-2.44-0.12-3.66-0.08c-0.72,0.03-0.97,0.51-0.58,1.22c0.46,0.84,0.83,1.71,1.77,2.13
		c0.79-0.08,1.57-0.11,2.33-0.25c0.34-0.06,0.65-0.32,0.96-0.48C67.59,192.36,67.39,191.63,67.15,190.95z M73.33,192.68
		c-0.61,1.21-1.21,2.41-1.8,3.59c1.03,0.85,1.47,0.94,2.67,0.5c0.91-0.33,1.9-0.61,1.85-2.01C75.4,193.88,74.9,192.69,73.33,192.68z
		 M95.6,215.36c1.08-0.54,1.24-0.67,1.5-1.21c0.26-0.51,0.08-1.02-0.44-1.31c-1.35-0.73-2.18-0.47-3.21,1.07
		C94,214.66,94.83,215,95.6,215.36z M72.22,200.12c0.05-0.5-0.43-1.02-0.94-1.01c-0.37,0.01-0.7,0.33-0.76,0.74
		c-0.07,0.47,0.23,0.87,0.72,0.96C71.71,200.9,72.18,200.57,72.22,200.12z M78.07,185.82c-0.03-0.55-0.22-0.87-0.5-0.83
		c-0.37,0.06-0.75,0.12-1.11,0.22c-0.23,0.06-0.46,0.18-0.37,0.58C76.73,185.9,77.39,186.14,78.07,185.82z M66.15,201.61
		c-0.18,0.25-0.44,0.45-0.42,0.63c0.05,0.52,0.24,1.01,0.94,1.13C67.02,202.67,66.73,202.18,66.15,201.61z"/>
	<path d="M117.5,259.97c-0.66-0.32-0.96-0.78-0.81-1.46c0.6-2.61,1.06-5.26,2.36-7.65c0.28-0.52,0.54-1.05,0.77-1.59
		c0.09-0.21,0.07-0.47,0.1-0.68c-0.68-0.42-1.22,0.01-1.79,0.05c-0.58,0.05-1.16,0.11-1.81,0.16c-0.16,0.3-0.35,0.57-0.45,0.87
		c-0.93,2.58-1.93,5.14-2.42,7.85c-0.1,0.58-0.27,1.15-0.4,1.72c-0.18,0.79-0.71,1.24-1.44,1.45c-0.49,0.15-1.01,0.23-1.58,0.35
		c-0.54,1.56-0.27,2.93,0.67,4.21c0.23,0.07,0.42,0.16,0.61,0.16c1.23,0.01,1.9,0.73,2.29,1.8c0.54,1.47,1.13,2.92,1.6,4.42
		c0.48,1.54,1.49,2.75,2.36,4.04c0.34,0.5,0.84,0.85,1.48,0.83c0.77-0.02,1.51,0.44,2.42,0.19c-0.21-0.76-0.62-1.33-1.02-1.89
		c-1.91-2.64-3-5.61-3.59-8.89c0.34-0.34,0.7-0.69,0.99-0.98c0.65-0.02,0.99,0.23,1.19,0.7c0.05,0.12,0.13,0.24,0.13,0.37
		c0.1,1.61,0.81,3.02,1.45,4.45c0.94,2.08,2,4.1,3.47,5.96c0.74,0.15,1.5,0.3,2.14,0.42c0.48-0.3,0.48-0.61,0.35-0.93
		c-0.26-0.6-0.53-1.19-0.83-1.77c-1.03-1.96-2.11-3.9-3.09-5.88c-0.34-0.69-0.49-1.48-0.64-2.25c-0.16-0.87,0.65-1.45,1.52-1.11
		c0.23,0.09,0.43,0.28,0.7,0.47c0.32,2.35,1.49,4.41,2.59,6.47c0.86,1.6,1.65,3.29,3.08,4.5c0.64,0.27,1.28,0.23,1.93,0.08
		c0.57-0.66,0.38-1.33,0-1.99c-0.56-0.96-1.14-1.91-1.72-2.85c-0.52-0.83-1.1-1.63-1.57-2.49c-0.44-0.79-0.8-1.64-1.16-2.47
		c-0.1-0.23-0.11-0.51-0.12-0.77c-0.01-0.36,0.36-0.84,0.71-0.82c0.3,0.02,0.59,0.18,0.87,0.31c0.1,0.05,0.17,0.2,0.21,0.32
		c0.72,2,2.11,3.59,3.27,5.32c1.2,1.78,2.48,3.52,3.78,5.33c0.76,0.37,1.58,0.17,2.57,0.05c-1.06-1.5-2.06-2.87-3.02-4.27
		c-0.92-1.35-1.78-2.73-2.71-4.07c-0.48-0.69-1.06-1.32-1.58-1.98c-0.4-0.51-0.1-1.25,0.54-1.34c0.47-0.07,0.92-0.05,1.27,0.33
		c0.35,0.39,0.69,0.78,1.02,1.19c0.12,0.15,0.19,0.34,0.29,0.51c1.64,2.76,4.39,6.56,6.72,9.29c0.24-0.04,0.53-0.08,0.78-0.12
		c0.07-0.23,0.15-0.35,0.14-0.47c-0.08-0.94-0.54-1.75-1.03-2.51c-0.79-1.21-1.39-2.5-1.96-3.83c-0.46-1.08-0.99-2.13-1.46-3.21
		c-0.16-0.36-0.25-0.74-0.34-1.12c-0.08-0.37,0.14-0.64,0.43-0.8c0.29-0.17,0.66-0.23,0.93,0c0.29,0.25,0.56,0.55,0.73,0.89
		c0.24,0.46,0.37,0.97,0.55,1.47c0.26,0.74,0.57,1.44,1.18,1.99c0.32,0.29,0.49,0.75,0.68,1.16c0.84,1.84,1.74,3.65,2.87,5.28
		c0.96,0.32,1.71-0.15,2.63-0.37c-0.23-0.49-0.41-0.91-0.62-1.3c-1.17-2.19-2.36-4.37-3.52-6.57c-0.24-0.46-0.41-0.96-0.56-1.46
		c-0.11-0.35,0.14-0.85,0.45-1.01c0.33-0.16,0.66-0.1,0.91,0.12c0.33,0.3,0.69,0.62,0.9,1.01c0.79,1.5,1.61,3,2.24,4.57
		c0.45,1.13,1.09,2.07,1.86,2.96c0.65,0.75,1.4,0.85,2.36,0.43c-0.06-0.27-0.07-0.54-0.18-0.74c-0.87-1.61-1.76-3.21-2.64-4.81
		c-0.22-0.4-0.42-0.81-0.59-1.24c-0.16-0.43-0.27-0.87-0.39-1.29c0.09-0.22,0.12-0.43,0.24-0.57c0.59-0.67,1.12-0.68,1.6-0.03
		c1.33,1.86,2.64,3.73,3.97,5.59c0.3,0.43,0.62,0.85,0.94,1.26c0.3,0.39,0.73,0.61,1.2,0.51c0.56-0.12,1.19-0.22,1.31-1.08
		c-0.9-1.27-1.85-2.58-2.77-3.92c-0.41-0.59-0.77-1.21-1.12-1.83c-0.12-0.22-0.15-0.49-0.21-0.7c0.3-0.35,0.63-0.39,0.9-0.15
		c0.33,0.31,0.59,0.69,0.89,1.04c1.36,1.58,2.73,3.17,4.1,4.74c0.13,0.14,0.3,0.24,0.46,0.36c0.44,0.32,0.87,0.39,1.07,0.18
		c0.3-0.33,0.34-0.77,0.19-1.1c-0.43-0.95-0.94-1.86-1.46-2.77c-0.29-0.51-0.68-0.96-0.98-1.46c-0.16-0.27-0.24-0.59-0.36-0.89
		c0.63-0.57,1.27-0.26,1.91-0.27c0.7,1,1.34,1.98,2.05,2.91c0.67,0.87,1.16,1.91,2.28,2.47c0.6-0.12,1.21-0.28,1.7-0.85
		c-0.3-0.77-0.75-1.38-1.37-1.87c-0.74-0.58-1.22-1.36-1.64-2.18c-0.13-0.26,0.1-0.72,0.42-0.76c0.38-0.05,0.77-0.01,1.18-0.01
		c1.12,1.24,2.25,2.48,3.33,3.67c0.45-0.11,0.53-0.37,0.44-0.63c-0.12-0.37-0.35-0.7-0.49-1.06c-0.11-0.29-0.17-0.6-0.27-0.99
		c0.62-0.24,1.15-0.44,1.76-0.68c0.52-1.49-0.16-2.74-0.81-3.95c-0.62-0.21-1.23-0.29-1.69-0.6c-0.4-0.27-0.63-0.81-0.94-1.22
		c-0.31-0.4-0.58-0.86-1.25-0.99c0.14,0.41,0.29,0.76,0.37,1.11c0.19,0.85-0.24,1.36-1.16,1.37c-0.19,0-0.38-0.09-0.62-0.15
		c-0.62-1.11-0.58-2.54-1.54-3.52c-0.07-0.08-0.23-0.07-0.44-0.13c-0.27,0.75-0.18,1.5-0.02,2.26c0.11,0.52,0.07,0.53-0.56,1.34
		c-0.6,0-1.02-0.29-1.1-0.89c-0.12-0.9-0.17-1.82-0.24-2.73c-0.03-0.45,0.01-0.93-0.09-1.36c-0.12-0.49-0.46-0.79-1.14-0.58
		c-0.04,0.18-0.13,0.41-0.14,0.65c-0.08,1.24-0.12,2.47-0.23,3.71c-0.03,0.37-0.21,0.75-0.4,1.09c-0.07,0.13-0.35,0.22-0.5,0.19
		c-0.16-0.03-0.38-0.22-0.4-0.36c-0.06-0.44-0.12-0.92-0.03-1.35c0.31-1.39-0.03-2.73-0.22-4.08c-0.02-0.12-0.08-0.26-0.16-0.35
		c-0.23-0.26-0.52-0.44-0.86-0.34c-0.23,0.07-0.45,0.24-0.61,0.42c-0.12,0.13-0.15,0.36-0.19,0.55c-0.42,1.84-0.82,3.69-1.23,5.53
		c-0.88,0.16-1.19-0.06-1.05-0.78c0.25-1.28,0.57-2.55,0.81-3.83c0.17-0.89,0.39-1.79,0.18-2.81c-0.33-0.21-0.7-0.44-1.03-0.65
		c-0.19,0.13-0.34,0.17-0.39,0.27c-0.54,0.97-1,1.97-1.27,3.07c-0.31,1.27-0.73,2.51-1.12,3.75c-0.1,0.3-0.25,0.61-0.44,0.85
		c-0.09,0.11-0.35,0.13-0.53,0.12c-0.09-0.01-0.25-0.16-0.25-0.26c-0.02-0.39-0.07-0.79,0.02-1.16c0.43-1.98,0.91-3.94,1.35-5.91
		c0.1-0.43,0.13-0.88,0.19-1.28c-0.5-0.61-1.09-0.83-1.84-1.02c-0.17,0.27-0.35,0.52-0.51,0.79c-1.07,1.74-1.82,3.61-2.37,5.57
		c-0.23,0.81-0.58,1.59-0.91,2.38c-0.26,0.63-0.69,1.1-1.46,1.39c-0.2-0.14-0.53-0.26-0.68-0.5c-0.16-0.25-0.27-0.63-0.2-0.91
		c0.42-1.71,0.8-3.42,1.76-4.96c0.79-1.27,1.4-2.65,2.08-3.98c-1.28-0.72-2.46-0.62-3.82,0c-0.35,0.58-0.82,1.29-1.22,2.03
		c-0.46,0.86-0.89,1.74-1.3,2.63c-0.46,1.01-0.89,2.03-1.33,3.05c-0.28,0.66-0.55,1.33-0.86,1.97c-0.07,0.13-0.37,0.28-0.49,0.23
		c-0.21-0.08-0.47-0.27-0.54-0.48c-0.09-0.3-0.09-0.65-0.03-0.96c0.14-0.77,0.28-1.55,0.53-2.29c0.74-2.16,1.33-4.38,2.37-6.43
		c0.08-0.16,0.06-0.37,0.09-0.66c-0.47-0.07-0.91-0.14-1.35-0.18c-0.5-0.05-0.88,0.21-1.19,0.57c-0.17,0.2-0.32,0.42-0.45,0.64
		c-1.06,1.72-2.19,3.4-3.02,5.26c-0.72,1.61-1.49,3.19-2.36,4.64c-0.6,0.23-0.89-0.08-0.94-0.48c-0.06-0.57-0.04-1.17,0.07-1.74
		c0.46-2.47,1.45-4.74,2.74-6.88c0.4-0.67,0.8-1.34,1.02-2.15c-0.95-0.4-1.85-0.18-2.82-0.17c-0.32,0.38-0.7,0.74-0.98,1.16
		c-1.4,2.14-2.65,4.35-3.19,6.89c-0.16,0.76-0.46,1.51-0.8,2.2c-0.15,0.31-0.56,0.54-0.9,0.68c-0.38,0.15-0.77,0.03-1.12-0.45
		c0.04-0.27,0.04-0.66,0.16-1.02c0.8-2.55,1.63-5.1,2.7-7.55c0.3-0.68,0.49-1.33,0.31-1.98c-0.45-0.42-0.8-0.06-1.17-0.02
		c-0.32,0.03-0.64,0.1-0.88,0.14c-1.37,1.2-2.28,2.6-3.08,4.12c-1.01,1.92-1.89,3.87-2.54,5.93
		C118.35,259.08,118.12,259.67,117.5,259.97z"/>
	<path d="M152.59,114c0.24,0.06,0.47,0.18,0.7,0.18c1.05,0,2.09-0.03,3.14-0.05c0.39-0.01,0.78-0.02,1.18-0.04
		c0.71-0.02,1.06,0.4,1.27,1.11c-0.07,0.77-0.58,1.33-1.23,1.81c-0.52,0.09-1.03,0.15-1.53,0.29c-0.47,0.13-0.57,0.49-0.43,1.37
		c1.58,0.67,3.29,0.14,5.11,0.35c-0.48,0.4-0.86,0.71-1.23,1.03c-0.4,0.34-0.79,0.69-1.18,1.04c-0.37,0.34-0.74,0.69-1.12,1.05
		c0.49,0.41,0.96,0.33,1.39,0.21c1.53-0.45,3.1-0.39,4.66-0.3c0.47,0.03,0.9,0.16,1.1,0.62c-0.08,0.59-0.37,1.02-0.84,1.29
		c-0.85,0.49-1.7,0.97-2.58,1.39c-1.83,0.86-3.68,1.67-5.52,2.52c-0.22,0.1-0.38,0.31-0.57,0.48c0.38,0.43,0.8,0.37,1.13,0.19
		c1.6-0.87,3.24-0.74,4.95-0.38c1.91,0.41,3.86,0.65,5.79,0.97c0.48,0.08,0.88,0.25,0.98,0.91c-2.21,0.18-4.4,0.38-6.6,0.54
		c-0.59,0.04-1.17,0.04-1.7,0.37c-0.48,0.3-0.56,1-0.09,1.31c0.81,0.54,1.62,1.1,2.47,1.57c1.09,0.6,2.14,1.25,2.93,2.25
		c0.39,0.5,1.16,0.66,1.31,1.37c-0.05,0.49-0.41,0.67-0.78,0.81c-0.57,0.21-1.16,0.19-1.73-0.01c-1.6-0.55-3.31-0.74-4.78-1.69
		c-0.7-0.45-1.57-0.64-2.33-1.01c-0.52-0.25-0.99-0.6-1.45-0.89c-0.1-0.88-0.19-1.65-0.29-2.53c-0.32-0.12-0.66-0.29-1.02-0.38
		c-0.43-0.11-0.88-0.15-1.25-0.22c-0.72-0.73,0.08-2.03-1.28-2.46c-1.44,0.14-2.95,0.85-4.68,0.82c-0.13-0.69-0.26-1.31-0.37-1.94
		c-0.13-0.72,0.09-1.29,0.72-1.68c0.32-0.2,0.65-0.39,1.05-0.63c-0.9-0.52-1.61,0.09-2.36,0.15c-0.77,0.06-1.53,0.33-2.31,0.4
		c-0.76,0.07-1.46,0.65-2.26,0.31c-0.39-0.4-0.31-0.87-0.28-1.31c0.04-0.52,0.06-1.05,0.21-1.54c0.12-0.38,0.44-0.69,0.73-1.11
		c-0.89,0.04-1.66,0.06-2.43,0.1c-0.78,0.04-1.55,0.1-2.48,0.16c-0.2-0.24-0.48-0.58-0.82-0.98c-0.4,0-0.85-0.01-1.3,0
		c-0.61,0.02-1.11,0.27-1.57,0.7c-0.71,0.67-1.47,1.28-2.22,1.91c-0.09,0.07-0.24,0.06-0.37,0.09c-0.44-0.77-0.48-1.1-0.07-1.72
		c0.35-0.53,0.77-1.03,1.18-1.57c-0.56-0.39-0.98-0.17-1.27,0.16c-0.43,0.48-0.8,1.02-1.15,1.57c-1.04,1.66-2.05,3.33-3.08,5
		c-0.21,0.33-0.44,0.66-0.72,0.92c-0.22,0.21-0.5,0.44-0.93,0.28c-0.33-0.75-0.1-1.52,0.21-2.22c0.54-1.26,1.04-2.54,1.9-3.63
		c0.57-0.73,0.89-1.57,1.18-2.57c-0.27,0.01-0.49-0.04-0.59,0.04c-1.2,1.04-2.24,2.19-2.79,3.71c-0.49,1.35-1.04,2.68-1.51,4.03
		c-0.3,0.87-0.64,1.71-1.14,2.47c-0.48,0.06-0.86,0.22-1.1,0.67c-0.58,1.11-1.33,2.09-2.21,2.98c-0.36,0.02-0.41-0.25-0.43-0.51
		c-0.06-0.75,0.18-1.41,0.62-2.01c0.93-1.29,1.48-2.76,1.96-4.25c0.08-0.24,0.07-0.5,0.1-0.83c-0.6-0.3-1.17-0.58-1.72-0.85
		c-0.33-0.98-0.3-1.83,0.31-2.65c0.25-0.34,0.34-0.8,0.5-1.2c-0.17-0.06-0.24-0.12-0.27-0.1c-0.92,0.48-1.84,0.96-2.75,1.46
		c-0.57,0.31-1.11,0.68-1.69,0.99c-1.21,0.65-2.43,1.26-3.38,2.31c-0.24,0.26-0.63,0.38-1.06,0.63c-0.25-1.12-0.3-2.07,0.24-2.97
		c0.85-1.4,1.29-2.97,1.95-4.44c0.64-1.42,1.13-2.92,1.68-4.38c0.04-0.12,0.11-0.23,0.22-0.46c0.25-0.02,0.57-0.12,0.86-0.06
		c1.01,0.2,2.07,0.16,3.08,0.71c0.14,1.45-1.23,2.3-1.39,3.68c0.17,0,0.38,0.07,0.48-0.01c1.67-1.35,3.3-2.78,5.12-3.94
		c1.42-0.91,2.89-1.76,4.35-2.6c0.27-0.15,0.63-0.21,0.94-0.2c0.99,0,1.75-0.44,2.44-1.08c1.39-1.28,2.78-2.56,4.18-3.84
		c0.43-0.4,0.85-0.83,1.34-1.14c0.29-0.18,0.72-0.15,1.01-0.19c0.39,0.35,0.39,0.69,0.22,0.97c-0.45,0.79-0.94,1.57-1.43,2.33
		c-0.74,1.14-1.6,2.21-2.26,3.56c0.45,0.09,0.85,0.11,1.17,0.26c0.27,0.12,0.46,0.41,0.75,0.69c0.9-0.54,1.78-1.1,2.68-1.6
		c0.74-0.41,1.5-0.77,2.26-1.14c1.53-0.73,3.06-1.46,4.6-2.18c0.71-0.33,1.42-0.67,2.16-0.91c0.48-0.16,1.03-0.21,1.48,0.31
		c-0.16,1.35-1.18,2.23-1.97,3.19c0.24,0.35,0.5,0.26,0.74,0.19c1.31-0.41,2.6-0.85,3.91-1.23c0.94-0.28,1.48-0.2,2.52,0.22
		C153.84,112.4,152.89,113,152.59,114z"/>
	<path d="M173.22,261.73c-0.12-0.27-0.29-0.69-0.5-1.1c-0.58-1.1-1.17-2.18-1.76-3.27c-0.36-0.67-0.27-1.11,0.42-1.45
		c0.49-0.24,0.85-0.55,1.21-0.95c0.43-0.48,0.94-0.91,1.47-1.28c2.2-1.53,4.37-3.09,6.29-4.98c0.32-0.32,0.65-0.66,1.03-0.91
		c2.19-1.44,4.05-3.28,6.02-4.99c0.85-0.74,1.8-1.26,2.91-1.55c1-0.26,1.97-0.69,2.95-1.05c2.28-0.84,4.32-2.15,6.41-3.35
		c0.71-0.41,1.4-0.86,2.17-1.23c0.04,0.24,0.1,0.37,0.08,0.48c-0.48,2.9-0.88,5.81-1.7,8.64c-0.07,0.25-0.12,0.51-0.15,0.77
		c-0.1,1.08-0.59,1.99-1.23,2.83c-0.4,0.52-0.8,1.03-1.18,1.56c-1.48,2.07-2.96,4.14-4.42,6.22c-0.82,1.17-1.76,2.26-2.43,3.55
		c-0.83,1.59-0.88,3.09,0.12,4.61c0.5,0.76,1.01,1.51,1.61,2.21c1.15,1.34,2.18,2.77,3.26,4.16c0.37,0.47,0.59,1,0.72,1.59
		c0.42,1.84,0.87,3.68,1.33,5.51c0.68,2.72,1.4,5.43,2.08,8.15c0.05,0.21-0.05,0.46-0.09,0.75c-2.77-0.83-5.12-2.24-7.49-3.59
		c-3.68-2.1-7.31-4.29-10.99-6.41c-2.13-1.22-3.92-2.83-5.44-4.72c-0.62-0.77-1.28-1.47-2.02-2.12c-0.93-0.81-1.86-1.65-2.22-2.89
		C172.09,265.2,173.29,263.74,173.22,261.73z M180.79,269.24c1.9,1.78,3.88,3.46,6.06,4.91c1.52,1.01,2.99,2.1,4.46,3.18
		c0.52,0.38,0.98,0.85,1.48,1.27c0.24,0.2,0.47,0.45,0.86,0.34c0.26-0.53-0.14-1-0.18-1.5c-0.03-0.32-0.15-0.64-0.29-0.93
		c-0.11-0.22-0.29-0.43-0.48-0.6c-0.19-0.17-0.42-0.31-0.65-0.44c-2.38-1.37-4.55-3.05-6.84-4.55c-1.58-1.04-3.19-2.03-4.79-3.04
		c-0.22-0.13-0.47-0.21-0.71-0.31c-0.08,0.08-0.16,0.16-0.24,0.24C179.91,268.3,180.32,268.8,180.79,269.24z M182.03,254.31
		c2.13-1.82,4.41-3.46,6.38-5.48c1.36-1.39,2.91-2.59,4.4-3.89c-0.02-0.72-0.66-0.87-1.14-1.2c-0.18,0.07-0.39,0.1-0.53,0.22
		c-3.5,3.22-6.9,6.54-10.02,10.66C181.69,254.43,181.9,254.42,182.03,254.31z M190.66,250.93c-1.41,1.17-2.92,2.19-4.47,3.16
		c-1.45,0.9-2.69,2.05-3.99,3.14c-0.19,0.16-0.32,0.39-0.55,0.68c0.29,0.02,0.5,0.11,0.64,0.04c0.99-0.5,1.97-1.01,2.93-1.56
		c1.86-1.07,3.69-2.21,5.58-3.24c0.79-0.43,1.35-0.97,1.76-1.75c0.33-0.62,0.76-1.2,1.03-2.27
		C192.26,249.64,191.44,250.29,190.66,250.93z M190.62,269.85c-0.32-0.71-0.73-1.37-1.12-2.05c-0.3-0.53-0.72-0.92-1.32-1.07
		c-2.07-0.54-4.09-1.25-6.07-2.05c-0.36-0.14-0.73-0.29-1.11-0.36c-0.23-0.04-0.49,0.05-0.72,0.09c-0.01,0.57,0.39,0.7,0.71,0.89
		c1.29,0.73,2.6,1.45,3.89,2.19c1.52,0.87,3.02,1.77,4.33,2.95c0.53,0.48,0.72,0.52,1.69,0.69
		C191.1,270.63,190.79,270.24,190.62,269.85z M182.96,261.17c1.33-0.23,2.66-0.43,3.97-0.72c0.34-0.08,0.7-0.38,0.9-0.67
		c0.32-0.46,0.53-1.01,0.74-1.44c-0.18-0.39-0.38-0.51-0.67-0.39c-0.12,0.05-0.23,0.11-0.34,0.17c-1.22,0.73-2.42,1.46-3.75,1.99
		c-0.4,0.16-0.74,0.47-1.23,0.8C182.86,261.1,182.92,261.18,182.96,261.17z"/>
	<path d="M85.89,268.37c1.38,0.33,2.76,0.63,4.15,0.94c0.38-0.2,0.4-0.52,0.12-0.78c-0.55-0.52-1.18-0.79-1.94-0.38
		c-0.1,0.05-0.25,0.01-0.42,0.01c-0.56-0.36-1.14-0.75-1.79-1.17c-0.33,0.3-0.6,0.56-0.88,0.81c-0.28-0.43-0.63-0.79-1.11-0.94
		c-0.25,0.18-0.45,0.32-0.65,0.46c-0.53-0.26-0.78-0.72-1.06-1.16c-0.23-0.35-0.61-0.46-1.03-0.34c-0.21,0.24-0.42,0.47-0.75,0.84
		c-0.53-0.9-1.23-1.44-2.05-1.86c-0.49-0.25-0.64-0.91-0.37-1.38c0.29-0.5,0.61-1.03,1.03-1.4c1.27-1.12,2.51-2.32,4.04-3.07
		c1.56-0.77,2.85-1.86,3.95-3.14c0.87-1.02,1.9-1.78,3.02-2.45c0.84-0.5,1.69-0.99,2.57-1.41c2.41-1.17,4.82-2.32,7.25-3.43
		c0.94-0.43,1.94-0.75,2.95-1.01c1.64-0.43,3.27-0.9,4.84-1.54c0.48-0.2,0.93-0.49,1.43-0.63c0.58-0.17,1.17-0.19,1.59,0.47
		c-0.04,0.67-0.25,1.41-0.1,2.08c0.36,1.65,0.09,3.24-0.25,4.83c-0.36,1.66-0.69,3.32-1.04,4.98c-0.15,0.71-0.38,1.38-0.95,1.89
		c-0.41,0.36-0.6,0.86-0.64,1.39c-0.16,2.55-0.17,5.05,0.94,7.48c1,2.19,1.69,4.52,2.02,6.92c0.06,0.44,0.06,0.91,0,1.35
		c-0.09,0.67-0.68,1.15-1.39,1.08c-0.73-0.07-1.42,0.02-2.14,0.13c-0.57,0.08-1.17,0.02-1.75-0.02c-0.78-0.06-1.55-0.18-2.33-0.27
		c-0.52-0.06-1.04-0.08-1.55-0.17c-2.57-0.45-5.13-0.92-7.7-1.39c-0.32-0.06-0.66-0.05-0.96-0.16c-1.83-0.7-3.64-1.42-5.46-2.13
		c-0.79-0.31-1.59-0.58-2.39-0.88c-1.04-0.38-2.08-0.75-3.11-1.17c-1.13-0.45-1.91-1.36-2.62-2.29c-0.4-0.53-0.6-1.18,0.07-1.86
		c0.22-0.03,0.54-0.12,0.86-0.12c1.05,0.01,2.08,0.23,3.06,0.61c0.6,0.24,1.14,0.22,1.67-0.15C85.32,268.1,85.59,268.3,85.89,268.37
		z M95.9,262.6c2.67,0.08,4.89-1.45,5.87-3.97c0.26-0.67,0.22-1.25-0.2-1.83c-0.49-0.68-1.05-0.93-1.85-0.66
		c-1.49,0.51-2.86,1.19-3.81,2.54c-0.67,0.94-1.44,1.81-2.16,2.71C94.25,262.3,95.03,262.58,95.9,262.6z M102.55,254.96
		c1,1.11,1.06,2.46,0.95,3.84c-0.05,0.64-0.16,1.29-0.23,1.93c-0.04,0.31-0.19,0.63,0.1,1.01c0.78-0.26,1.12-0.96,1.53-1.59
		c0.36-0.55,0.65-1.1,0.61-1.8c-0.11-1.94-0.91-3.01-3-3.75C102.54,254.84,102.52,254.92,102.55,254.96z M106.47,254.84
		c0.11-0.12,0.3-0.25,0.32-0.39c0.07-0.59-0.04-1.16-0.41-1.63c-0.37-0.46-0.88-0.81-1.45-0.88c-0.4-0.05-0.83,0.15-1.46,0.29
		C104.62,253.22,105.53,254.02,106.47,254.84z"/>
	<path d="M131.98,170.8c-2.41-0.13-4.55-0.24-6.79-0.36c-1.44-0.98-2.92-2.05-4.61-2.77c-0.78-0.33-1.53-0.77-2.34-0.99
		c-1.72-0.46-3.25-1.33-4.91-2.14c-0.04-0.28-0.09-0.59-0.14-0.89c0.58-1.05,1.33-1.75,2.53-2c0.69-0.15,1.37-0.47,1.97-0.84
		c1.35-0.82,2.82-1.29,4.36-1.75c-0.03-0.24,0.01-0.47-0.09-0.57c-0.11-0.11-0.35-0.17-0.52-0.14c-0.18,0.02-0.35,0.16-0.52,0.25
		c-1.09,0.62-2.25,1.03-3.46,1.34c-2.52,0.66-5.05,1.33-7.57,1.98c-0.18,0.05-0.38,0.01-0.69,0.01c-0.03-0.3-0.07-0.6-0.11-1
		c-0.21-0.04-0.48-0.19-0.68-0.12c-1.23,0.45-2.47,0.81-3.81,0.74c-0.56-0.03-0.98,0.28-1.37,0.65c-1.57,1.47-3.16,2.93-4.74,4.39
		c-0.24,0.22-0.48,0.42-0.83,0.27c0-0.19-0.04-0.33,0.01-0.43c0.36-0.77,0.71-1.54,1.11-2.29c0.5-0.92,1.01-1.83,1.58-2.71
		c0.88-1.37,1.87-2.67,2.66-4.11c0.47-0.86,0.61-0.87,1.77-1.53c0.24,0.17,0.5,0.35,0.76,0.54c0.12-0.03,0.28-0.02,0.36-0.1
		c0.46-0.46,0.89-0.95,1.44-1.54c0.25-0.04,0.62-0.12,1.01-0.14c2.42-0.11,4.79-0.56,7.14-1.12c0.72-0.17,1.3-0.51,1.8-1.09
		c0.55-0.64,1.23-1.16,1.89-1.77c0.12-1.54-0.92-2.81-1.16-4.37c0.59-0.57,1.17-1.18,1.81-1.72c0.68-0.57,1.06-1.24,1.28-2.12
		c0.27-1.06,0.73-2.09,1.21-3.08c0.74-1.52,1.56-3,2.39-4.56c4.15-0.82,8.34-0.67,12.62,0c-0.1,0.52-0.17,0.94-0.25,1.35
		c0.17,0.07,0.28,0.16,0.4,0.16c0.52-0.02,1.04-0.08,1.56-0.09c0.5,0,0.51,0.03,1.34,0.83c-0.02,0.37-0.04,0.8-0.06,1.2
		c0.19,0.1,0.31,0.21,0.42,0.2c0.65-0.06,1.29-0.17,1.94-0.21c0.79-0.05,1.58-0.02,2.21,0.77c0,0.65-0.32,1.17-0.96,1.48
		c-1.54,0.74-2.9,1.75-4.3,2.71c-1.66,1.15-3.28,2.37-5.01,3.42c-1.41,0.85-2.66,1.88-3.94,2.88c-0.46,0.36-0.95,0.67-1.37,0.97
		c-1.91-0.35-3.71-0.38-5.59-0.09c-0.11,0.54-0.26,1.04-0.3,1.55c-0.1,1.17,0.54,1.9,1.68,1.91c0.51,0.01,1.02-0.05,1.54-0.08
		c0.33,0.59,0.2,1.18,0.16,1.75c-0.11,1.44,0.45,2.53,1.63,3.31c0.89,0.15,1.8-0.72,2.63,0.12c0.15,0.64-0.33,0.95-0.69,1.3
		c-0.13,0.12-0.35,0.16-0.54,0.21c-2.47,0.64-4.79,1.72-7.21,2.5c-0.86,0.28-1.67,0.71-2.45,1.06c-0.02,0.57,0.34,0.59,0.48,0.64
		c1.39-0.5,2.64-0.99,3.93-1.41c1.3-0.42,2.63-0.78,3.95-1.14c0.5-0.14,1.01-0.27,1.52-0.29c0.66-0.02,1.29-0.13,1.91-0.37
		c0.31-0.12,0.65-0.04,0.88,0.25c-0.42,1.14-0.42,1.14-0.97,1.56c-0.69,0.52-1.43,0.92-2.28,1.1c-0.39,0.08-0.74,0.23-0.93,0.74
		c0.83,0.42,1.61,0.02,2.41-0.1c0.83-0.13,1.6-0.6,2.52-0.38c0.16,0.44-0.09,1.05,0.44,1.36c0.39,0.23,0.79,0.5,1.21,0.59
		c0.5,0.1,1.03,0.02,1.52,0.02c0.47,0.2,0.08,0.61,0.37,1.04c1.01,0.81,2.5,0.94,3.81,1.45c1.32,0.51,2.74,0.77,4.14,1.14
		c0.17,0.21,0.18,0.44-0.07,0.64c-0.1,0.08-0.23,0.14-0.35,0.15c-2.09,0.17-4.15,0.17-6.16-0.63c-2.71-1.07-2.72-1.03-5.66-3.13
		c-1.56,0.15-3.07,0.71-4.65,1.23c0.4,0.9,1.3,0.72,1.85,1.14C130.58,169.95,131.4,169.95,131.98,170.8z M113.07,158.7
		c2.03-0.04,3.66-0.66,5.34-0.99c0.92-0.18,1.68-0.63,2.44-0.87c0.21-0.51,0.27-0.87-0.04-1.21c-0.81,0.37-1.59,0.91-2.44,1.08
		c-1.55,0.3-2.95,0.97-4.43,1.44C113.71,158.23,113.52,158.42,113.07,158.7z"/>
	<path d="M64.24,243.34c-0.41-0.93-0.53-1.89-0.51-2.88c0.01-0.46-0.03-0.92,0.01-1.37c0.15-1.97-0.32-3.89-0.48-5.84
		c-0.01-0.09-0.13-0.17-0.31-0.37c-0.11,1.34-0.4,2.54-0.4,3.78c0,0.6-0.12,1.12-0.62,1.57c-0.3,0.27-0.38,0.78-0.59,1.26
		c-0.51-0.34-0.37-0.85-0.5-1.24c-0.14-0.43-0.2-0.89-0.32-1.33c-0.12-0.43-0.11-0.92-0.64-1.28c-0.17,0.35-0.42,0.66-0.49,1.01
		c-0.33,1.63-1.04,3.07-2.05,4.38c-1.04,1.36-1.85,2.83-2.37,4.47c-0.38,1.2-0.9,2.36-1.44,3.74c0.04-1.31,0.01-2.39,0.23-3.5
		c0.34-1.64,0.44-3.33,0.63-4.96c-0.39-0.24-0.56,0.01-0.69,0.19c-0.19,0.26-0.37,0.55-0.47,0.85c-0.28,0.84-0.81,1.47-1.55,2
		c-0.69-0.45-0.8-1.2-0.77-1.89c0.05-0.96,0.12-1.91,0.48-2.86c0.55-1.46,1.32-2.85,1.47-4.45c0.02-0.18,0-0.37,0-0.66
		c-0.2,0.07-0.44,0.08-0.49,0.18c-0.44,0.87-0.86,1.76-1.26,2.65c-0.45,1.01-0.79,2.07-1.59,2.92c-0.45-0.02-0.31-0.48-0.49-0.7
		c-0.16-0.19-0.28-0.42-0.44-0.68c-0.55,0.9,0.37,1.89-0.44,2.77c-0.2-0.17-0.45-0.28-0.55-0.47c-0.42-0.81-0.82-1.63-1.18-2.47
		c-0.72-1.67-1.34-3.38-1.94-5.14c0.24-0.35,0.48-0.66,0.67-0.99c0.39-0.68,0.89-1.33,1.11-2.06c0.55-1.83,1.45-3.49,2.18-5.24
		c0.75-1.81,1.48-3.62,2.23-5.43c0.4-0.96,0.83-1.92,1.26-2.87c1.09-2.38,1.91-4.85,2.67-7.35c0.29-0.95,0.63-1.85,1.25-2.63
		c0.83-1.05,1.23-2.29,1.59-3.55c0.17-0.57,0.51-0.91,1.27-0.74c0.13,0.19,0.38,0.43,0.47,0.72c0.41,1.22,1.19,2.19,2.13,3.01
		c1.69,1.46,3.06,3.21,4.48,4.91c0.46,0.55,0.89,1.14,1.41,1.62c1.34,1.25,2.11,2.83,2.6,4.53c0.54,1.88,0.89,3.81,1.33,5.72
		c0.45,1.94,0.41,3.85-0.25,5.76c-0.59-0.22-0.56-0.85-0.85-1.26c-0.27-0.37-0.54-0.73-0.8-1.11c-0.29-0.43-0.52-0.91-0.85-1.31
		c-0.27-0.33-0.25-0.91-0.83-0.98c-0.23,0.46-0.01,0.9,0.05,1.34c0.06,0.45,0.21,0.88,0.34,1.32c0.39,1.32,0.72,2.65,0.73,4.03
		c0,0.36,0.09,0.8-0.38,1.03c-0.53-0.57-0.32-1.64-1.26-2c-0.41,0.88-0.78,1.7-1.17,2.54c-0.62-0.82-0.66-1.93-0.21-4.67
		c-0.28-0.72-0.47-1.6-1.05-2.5c-0.45,0.95-0.38,1.8-0.36,2.63c0.03,1.69,0.07,3.39,0.16,5.08c0.08,1.43,0.28,2.86,0.33,4.29
		c0.05,1.76,0.01,3.53-0.02,5.29C64.71,242.6,64.76,243.09,64.24,243.34z"/>
	<path d="M172.43,163.53c-0.95,0.17-1.86,0.43-2.68,0.99c-0.9-0.72-0.13-2.03-1.05-2.67c-0.61-0.35-1.32-0.6-1.81-1.07
		c-0.49-0.47-0.76-1.17-1.11-1.75c-0.48,0.03-0.87,0.06-1.34,0.09c-0.31-0.45-0.63-0.92-0.95-1.39c-0.22-0.01-0.44-0.08-0.6-0.03
		c-0.86,0.3-1.71,0.63-2.65,0.98c-0.44-0.32-0.43-0.85-0.35-1.35c0.06-0.38,0.27-0.73,0.37-1.11c0.07-0.23,0.07-0.48,0.11-0.83
		c-1.05-0.11-1.98,0.6-2.95,0.08c-0.41-0.41-0.22-0.95-0.21-1.45c-0.31-0.4-0.62-0.8-0.88-1.14c0.19-0.68,0.95-0.9,0.85-1.61
		c-0.11-0.8-0.4-1.52-0.87-2.15c-0.31-0.42-0.72-0.76-1.08-1.13c-0.46-0.48-0.78-1.03-0.8-1.71c1.42-0.89,2.94-0.83,4.41-0.64
		c1.72,0.22,3.35-0.11,5.01-0.46c3.51-0.73,6.86-2.06,10.34-2.9c0.25-0.06,0.5-0.17,0.75-0.21c0.61-0.1,1.13,0.59,0.89,1.17
		c-0.21,0.49-0.51,0.91-0.99,1.17c-0.69,0.37-1.36,0.78-1.77,1.5c0.13,0.39,0.39,0.17,0.6,0.15c1.02-0.12,1.99-0.69,3.23-0.35
		c0.16,0.18,0.42,0.47,0.69,0.77c0.56,0.15,0.93-0.38,1.59-0.45c0.48,0.29,1.3,0.16,1.75,0.98c-0.85,2.05-2.71,2.57-4.74,3.05
		c-0.31-0.43-0.64-0.88-0.96-1.33c-0.13-0.01-0.28-0.08-0.38-0.04c-0.91,0.35-1.81,0.73-2.73,1.11c-0.16,0.46-0.3,0.88-0.43,1.25
		c0.72,0.83,1.94-0.03,2.56,1c-0.24,1.11-0.92,1.91-1.94,2.47c-0.74,0.4-1.53,0.71-2.27,1.38c0.28,0.06,0.46,0.15,0.6,0.11
		c0.38-0.09,0.81-0.15,1.1-0.38c0.66-0.52,1.41-0.62,2.2-0.68c0.32-0.02,0.62-0.21,0.93-0.23c0.15-0.01,0.31,0.19,0.54,0.33
		c-0.51,1.55-2.24,2.16-2.8,3.64c0.53,0.38,1.04,0.14,1.54,0.05c0.79-0.14,0.79-0.15,1.45,0.15c-0.41,1.59-0.64,1.9-1.49,2.82
		c-0.57,0.61-1.39,0.99-1.7,1.84L172.43,163.53z"/>
	<path d="M185.38,133.75c-0.16,0.23-0.4,0.41-0.43,0.63c-0.11,0.71-0.1,1.43-0.22,2.13c-0.08,0.43-0.28,0.85-0.52,1.22
		c-0.19,0.29-0.55,0.3-0.98,0.08c-0.54-1.08-1.04-2.28-1.33-3.55c-0.09-0.38-0.14-0.77-0.26-1.14c-0.23-0.73-0.75-1.02-1.52-0.81
		c-0.37,0.1-0.72,0.27-1.04,0.39c-0.84,1.3-0.73,2.99-1.89,4.1c-0.83-0.28-1.02-0.89-1.14-1.54c-0.18-0.9-0.32-1.8-0.48-2.7
		c-0.07-0.39-0.19-0.76-0.69-1.01c-0.57,0.52-1.18,1.08-1.82,1.66c-0.54-0.6-0.72-1.18-0.4-1.85c0.37-0.77,0.71-1.54,0.77-2.46
		c-0.66-0.72-1.33-1.39-2.37-1.59c-0.35-0.07-0.67-0.36-0.98-0.59c-0.83-0.63-1.64-1.28-2.54-1.99c-0.03-0.23-0.21-0.68,0.19-0.92
		c0.25-0.15,0.62-0.15,0.92-0.12c0.32,0.03,0.62,0.19,0.94,0.28c0.75,0.22,1.5,0.42,2.2,0.62c1.78-0.67,3.48-1.33,5.19-1.97
		c0.3-0.11,0.63-0.17,0.94-0.21c0.39-0.05,0.78,0.37,0.7,0.75c-0.08,0.38-0.2,0.75-0.31,1.13c-0.35,1.18-0.71,2.36-0.78,3.59
		c0.49,0.22,0.67-0.11,0.81-0.35c0.49-0.85,0.92-1.72,1.4-2.58c0.28-0.49,0.41-0.53,1.35-0.53c0.48,0.49,0.43,1.38,1.25,1.69
		c0.76-0.45,0.77-1.6,1.65-1.96c0.51,0.38,0.56,0.91,0.59,1.43c0.03,0.72,0.01,1.44,0.06,2.15c0.03,0.37,0.18,0.73,0.27,1.08
		c0.8,0.34,1.47-0.36,2.39,0.01c0.56,0.45,1,1.26,1.44,2.05c0.75,1.37,1.42,2.79,2.11,4.19c0.09,0.17,0.19,0.35,0.2,0.54
		c0.03,0.39,0.01,0.78,0.01,1.23c-0.29,0.23-0.59,0.47-0.87,0.69c-0.17-0.07-0.33-0.09-0.39-0.17
		C188.65,135.81,187.17,134.67,185.38,133.75z"/>
	<path d="M161.8,144.92c-0.28-0.55-0.51-1.01-0.73-1.46c-0.1-0.09-0.18-0.2-0.29-0.25c-1.01-0.43-1.99-0.94-3.04-1.29
		c-1.3-0.44-2.45-1.18-3.47-2.07c-0.07-0.6-0.14-1.17-0.21-1.74c0.57-0.89,1.39-0.89,2.25-0.68c0.31,0.08,0.6,0.26,0.89,0.4
		c0.94,0.46,1.86,0.94,2.81,1.37c0.89,0.4,1.8,0.76,2.6,1.34c0.35,0.25,0.83,0.31,1.23,0.45c0.97-0.82,2.02-1.33,3.12-1.77
		c0.84-0.34,1.69-0.72,2.43-1.24c0.78-0.56,1.69-0.68,2.55-0.94c0.74-0.23,1.56-0.2,2.2,0.45c-1.01,1.98-2.87,2.97-4.68,4
		c-1.19,0.68-2.43,1.27-3.62,1.92C164.62,144.07,163.36,144.58,161.8,144.92z"/>
	<path d="M126.02,230.06c-0.75,0.7-1.21,1.16-1.7,1.57c-1.95,1.64-3.65,3.56-5.39,5.4c-1.88,1.99-3.35,4.34-4.36,6.93
		c-0.25,0.65-0.78,1.23-0.65,2c0.48,0.39,1.02,0.26,1.52,0.2c0.71-0.08,1.41-0.25,2.12-0.35c0.55-0.08,1-0.32,1.3-0.78
		c0.66-0.97,1.36-1.9,1.79-3.02c0.53-1.4,1.2-2.75,1.85-4.11c1.12-2.36,2.27-4.7,3.4-7.06
		C125.95,230.74,125.94,230.61,126.02,230.06z"/>
	<path d="M176.43,101.56c-1.72-1.76-3.24-3.37-4.82-4.91c-0.83-0.82-1.74-1.56-2.64-2.31c-0.47-0.39-0.83-0.84-1.01-1.41
		c-0.53-1.76-0.84-3.55-0.49-5.38c0.05-0.24,0.22-0.45,0.4-0.83c0.73,1.84,1.57,3.46,1.86,5.28c0.12,0.74,0.51,1.16,1.3,1.18
		c0.89,0.02,1.57,0.54,2.28,0.99c1.04,0.66,2.09,1.31,3.12,1.99c1.19,0.79,2.37,1.6,3.54,2.42c0.74,0.52,1.47,1.06,2.21,1.6
		C180.37,100.92,178.37,100.99,176.43,101.56z"/>
	<path d="M132.94,230.98c-1,0.32-1.48,0.79-1.93,1.22c-1.32,1.25-2.62,2.54-3.88,3.85c-1.82,1.89-3.33,4.01-4.57,6.31
		c-0.22,0.4-0.48,0.77-0.72,1.16c-0.19,0.33-0.19,0.34-0.07,1.3c1.76,0.58,3.39,0.11,4.17-1.39c0.93-1.8,1.93-3.55,2.99-5.27
		c0.92-1.5,1.78-3.04,2.65-4.57C132,232.85,132.37,232.08,132.94,230.98z"/>
	<path d="M119.64,279.52c-0.18,0.12-0.39,0.27-0.57,0.4c0.01,0.18-0.02,0.33,0.03,0.43c2.38,4.4,5.75,7.88,9.9,10.64
		c0.82,0.54,1.59,1.14,2.4,1.7c0.13,0.09,0.32,0.1,0.48,0.15c0.05-0.11,0.11-0.2,0.1-0.22c-0.5-0.59-1-1.18-1.53-1.75
		c-1.77-1.93-3.25-4.08-4.82-6.17c-0.9-1.2-1.71-2.45-2.33-3.82c-0.36-0.79-0.98-1.17-1.86-1.18
		C120.85,279.69,120.27,279.59,119.64,279.52z"/>
	<path d="M147.52,211.41c-0.08-0.78-0.11-1.43,0.7-1.87c1,0.19,2.05,0.5,3.04,1c1.1,0.55,2.21,1.11,3.34,1.6
		c0.4,0.18,0.88,0.24,1.33,0.26c2.52,0.12,4.89,1.22,6.5,3.06c0.51,0.59,1.02,1.18,1.53,1.78c0.03,0.04,0,0.13,0,0.19
		c-0.29,0.41-0.7,0.3-1.06,0.19c-1.44-0.44-2.78-1.11-4.1-1.83c-0.57-0.31-1.16-0.58-1.73-0.89c-0.28-0.16-0.55-0.35-0.79-0.56
		c-0.43-0.39-0.84-0.82-1.28-1.25c-1.85,0.32-3.61-0.16-5.38-0.49C148.83,212.45,148.17,212.03,147.52,211.41z"/>
	<path d="M136.87,233.2c-0.86,0.16-1.32,0.62-1.68,1.13c-0.72,1.03-1.65,1.85-2.65,2.58c-1.62,1.18-2.86,2.65-3.6,4.53
		c-0.4,1.02-1.1,1.93-1.21,3.13c0.82,0.26,1.67,0.23,2.49,0.07c0.86-0.16,1.57-0.63,1.94-1.48c1.12-2.56,2.58-4.96,3.55-7.59
		C135.99,234.8,136.43,234.09,136.87,233.2z"/>
	<path d="M146.94,160.2c0-0.55,0-0.98,0-1.39c0.66-0.59,1.42-0.8,2.15-1.06c0.37-0.13,0.76-0.2,1.12-0.33
		c1.25-0.47,2.49-0.7,3.81-0.2c0.72,0.27,1.53,0.3,2.29,0.48c0.77,0.18,1.48,0.5,2.03,1.12c0.07,0.71-0.54,0.97-0.78,1.33
		C154.02,160.9,150.6,160.89,146.94,160.2z"/>
	<path d="M113.38,110.32c-0.07-0.16-0.18-0.33-0.21-0.51c-0.12-0.64-0.22-1.28-0.34-2.01c0.36-0.36,0.67-0.79,1.09-1.06
		c1.64-1.06,3.29-2.12,4.99-3.08c1.07-0.61,2.22-1.07,3.35-1.55c0.19-0.08,0.52,0.03,0.72,0.15c0.3,0.2,0.32,0.55,0.22,0.88
		c-0.05,0.18-0.14,0.38-0.27,0.51c-0.36,0.38-0.71,0.78-1.13,1.08c-1.65,1.16-3.33,2.28-4.98,3.43c-0.8,0.56-1.58,1.16-2.38,1.71
		C114.13,110.07,113.86,110.4,113.38,110.32z"/>
	<path d="M154.42,203.88c0.69-0.22,1.29-0.42,1.86-0.6c0.24,0.15,0.45,0.21,0.56,0.36c0.94,1.27,2.23,2.15,3.42,3.14
		c0.45,0.37,0.94,0.69,1.43,1.01c0.71,0.47,1.34,0.97,1.89,1.65c0.64,0.8,1.5,1.43,2.25,2.12c-0.21,0.44-0.58,0.53-0.95,0.59
		c-0.5,0.08-0.89-0.21-1.22-0.51c-0.38-0.35-0.69-0.77-1.03-1.17c-0.86-1-1.89-1.76-3.22-2.22c-0.43,0.39-0.84,0.77-1.3,1.19
		c-0.75-0.48-1.34-1.06-1.8-1.77c-0.57-0.87-1.15-1.73-1.66-2.64C154.47,204.73,154.5,204.32,154.42,203.88z"/>
	<path d="M122.42,290.32c0.03-0.47,0.11-0.69,0.04-0.82c-1.6-2.89-3.13-5.83-4.89-8.63c-0.1-0.16-0.18-0.35-0.27-0.52
		c-0.81-1.51-1.11-1.64-2.99-1.19c0.05,0.71,0.18,1.41,0.54,2.04c0.67,1.19,1.33,2.39,2.07,3.53c0.56,0.87,1.22,1.68,1.87,2.49
		c0.65,0.81,1.31,1.61,2.3,2.05C121.49,289.46,121.8,289.83,122.42,290.32z"/>
	<path d="M158.26,163.7c-0.19,0.58-0.35,1.05-0.53,1.58c0.13,0.09,0.27,0.27,0.42,0.29c0.7,0.05,1.27,0.28,1.57,1.02
		c-0.2,0.92-0.99,1.3-1.71,1.73c-0.66,0.4-1.37,0.36-2.18,0.08c-0.09-0.24-0.3-0.54-0.29-0.83c0.03-0.81-0.36-1.36-0.98-1.9
		c-0.39,0.04-0.84,0.14-1.28,0.1c-0.37-0.04-0.72-0.25-1.18-0.42c-0.15-0.54-0.37-1.09-0.46-1.65c-0.11-0.7,0.36-1.08,1.06-1.01
		c0.84,0.08,1.68,0.17,2.53,0.18C156.26,162.86,157.19,163.05,158.26,163.7z"/>
	<path d="M135.84,289.18c-1.08-1.08-2.08-2.2-3.22-3.16c-1.34-1.13-2.09-2.62-2.83-4.13c-0.31-0.64-0.53-1.32-0.77-1.95
		c-1.22-0.55-2.37-0.07-3.67-0.2c0.6,1.85,1.33,3.42,2.68,4.58c2.27,1.96,4.8,3.55,7.43,4.98
		C135.52,289.34,135.66,289.24,135.84,289.18z"/>
	<path d="M156.91,250.6c2.83-1.71,5.83-2.84,8.49-4.51c0.03-0.2,0.08-0.33,0.06-0.44c-0.06-0.31-0.31-0.39-0.58-0.42
		c-0.19-0.02-0.4-0.04-0.58,0.02c-2.86,0.85-5.83,1.38-8.46,2.89c-0.34,0.19-0.65,0.42-0.96,0.65c-0.19,0.14-0.35,0.33-0.61,0.57
		C155.11,249.94,155.94,250.27,156.91,250.6z"/>
	<path d="M162.99,182.02c-0.59,0.26-1.03,0.24-1.43-0.03c-0.42-0.3-0.85-0.6-1.22-0.96c-1.56-1.56-3.11-3.14-4.65-4.71
		c-0.14-0.14-0.27-0.28-0.38-0.44c-0.27-0.41-0.16-1.09,0.23-1.4c0.15-0.12,0.31-0.23,0.48-0.32c0.23-0.12,0.47-0.2,0.68-0.29
		c0.23,0.09,0.47,0.12,0.58,0.25c1.26,1.56,2.6,3.07,3.71,4.73C161.67,179.83,162.74,180.61,162.99,182.02z"/>
	<path d="M140.76,235.39c-3.42,1.76-6.36,6.07-6.73,9.36c0.1,0.07,0.2,0.2,0.31,0.21c0.58,0.06,1.16,0.09,1.79,0.14
		c0.15-0.26,0.32-0.46,0.4-0.69c0.56-1.68,1.33-3.26,2.17-4.81C139.44,238.22,140.08,236.79,140.76,235.39z"/>
	<path d="M176.73,166.28c-1.01,0.4-2.01,0.87-3.2,0.68c-0.27-0.31-0.54-0.67-0.85-0.99c-0.76-0.76-0.73-1.58-0.25-2.46l-0.04,0.03
		c1.38,0.01,2.7-0.38,4.05-0.57c0.64-0.09,1.27-0.32,1.91-0.36c0.34-0.02,0.69,0.23,1.15,0.39c-0.25,0.44-0.37,0.81-0.62,1.07
		c-0.71,0.76-1.46,1.48-2.19,2.21L176.73,166.28z"/>
	<path d="M187.94,95.41c-1.84,0.21-3.24-0.15-4.66-0.14c-1.43,0.01-2.86-0.12-4.31-0.19c-0.59-1.1-0.72-2.21-0.51-3.49
		c3.02,0.75,5.72,2.07,8.53,3.07C187.2,94.74,187.38,94.97,187.94,95.41z"/>
	<path d="M224.42,251.21c-0.9-2.61-1.81-5.23-2.7-7.86c-0.33-0.99-0.47-1.99-0.15-3.01c0.52,0.08,0.79,0.35,0.96,0.72
		c0.96,2.06,1.9,4.13,2.85,6.19c0.34,0.74,0.42,1.48,0.1,2.26c-0.14,0.35-0.12,0.77-0.24,1.14
		C225.14,250.96,224.88,251.17,224.42,251.21z"/>
	<path d="M162.61,273.95c-0.86,0.31-1.66,0.6-2.45,0.9c-0.11,0.04-0.18,0.18-0.27,0.27c0.84,1.72,3.39,3.17,7.41,4.42
		c0.14-0.24,0.29-0.5,0.41-0.69c-0.18-0.75-0.76-1-1.19-1.38c-0.44-0.39-0.93-0.72-1.37-1.11c-0.44-0.39-0.83-0.83-1.25-1.24
		C163.48,274.72,163.04,274.34,162.61,273.95z"/>
	<path d="M139.14,245.34c0.56,0.11,1.18,0.24,1.78,0.36c0.59-0.25,1.04-0.59,1.31-1.16c0.92-2,1.86-3.99,2.78-5.98
		c0.02-0.04-0.03-0.11-0.04-0.17c-0.11-0.04-0.27-0.14-0.34-0.1c-2.45,1.38-4.24,3.37-5.47,5.88
		C138.98,244.52,138.83,244.87,139.14,245.34z"/>
	<path d="M156.6,187.5c-0.2-0.54-0.35-0.97-0.48-1.32c-0.97-0.63-2.06-0.57-2.93-0.86c-0.42-0.54-0.13-0.84,0.15-1.11
		c0.13-0.12,0.36-0.19,0.54-0.19c1.23,0.03,2.47,0.07,3.7,0.15c0.24,0.02,0.48,0.2,0.7,0.33c0.27,0.16,0.31,0.53,0.05,0.83
		c-0.12,0.14-0.28,0.26-0.4,0.38c-0.03,0.62,0.45,0.85,0.84,0.97c0.96,0.3,1.44,1.07,1.98,1.8c0.1,0.14,0.12,0.36,0.14,0.55
		c0.04,0.37-0.43,0.8-0.77,0.67c-0.36-0.13-0.73-0.28-1.06-0.49C158.26,188.68,157.47,188.11,156.6,187.5z"/>
	<path d="M151.36,178.99c0.77-0.68,0.89-1.86,2.14-2.03c2.04,1.62,3.67,3.65,5.36,5.51c0.04,0.58-0.29,0.61-0.62,0.61
		c-0.7-0.01-1.27-0.35-1.74-0.8c-1.09-1.06-2.47-1.66-3.76-2.39C152.29,179.64,151.88,179.33,151.36,178.99z"/>
	<path d="M161.54,174.8c0.53-0.08,0.97-0.15,1.47-0.22c0.67,0.86,0.98,1.87,1.42,2.79c0.65,1.35,1.16,2.77,1.76,4.15
		c0.24,0.56,0.37,1.12,0.21,1.71c-0.04,0.17-0.21,0.3-0.32,0.45c-0.61-0.2-0.66-0.8-0.99-1.17c-1.68-1.89-2.49-4.25-3.43-6.52
		C161.51,175.64,161.57,175.22,161.54,174.8z"/>
	<path d="M144.66,205.44c1.54-1.19,3.12-1.23,4.83-0.88c0.81,1.22,2.53,1.87,2.43,3.84c-1.14-0.07-2.13-0.36-3.06-0.79
		c-1.13-0.51-2.26-1.01-3.49-1.27C144.96,206.25,144.73,205.96,144.66,205.44z"/>
	<path d="M89.91,196.91c1.43-0.88,2.87-1.25,4.34-1.52c0.51-0.09,1.04-0.13,1.49,0.25c-0.09,1.35-0.61,2.03-3.3,4.31
		c-0.69,0.13-1.14-0.21-1.43-0.77C90.64,198.5,90.33,197.79,89.91,196.91z"/>
	<path d="M158.11,275.47c-0.9,0.43-1.81,0.6-2.62,1.22c0.18,0.25,0.28,0.52,0.47,0.64c2.33,1.55,4.72,3,7.35,4.24
		c0.11-0.32,0.18-0.54,0.27-0.82C161.54,279.25,159.94,277.36,158.11,275.47z"/>
	<path d="M115.34,130.41c-0.5,1.37-0.72,2.72-1.29,3.98c-0.36,0.81-0.39,1.76-0.59,2.65c-0.08,0.38-0.2,0.76-0.74,0.85
		c-0.1-0.11-0.3-0.24-0.31-0.39c-0.17-2.33-0.2-4.66,0.12-6.97c0.02-0.12,0.12-0.23,0.18-0.34
		C113.92,129.69,114.02,129.69,115.34,130.41z"/>
	<path d="M103.57,225.42c0.27,1.22,0.55,2.35,0.77,3.49c0.17,0.89,0.19,1.79-0.09,2.69c-0.28,0.9-0.45,1.84-0.69,2.86
		c-0.74-0.45-1.11-1.08-1.56-1.62c-0.15-0.18-0.22-0.47-0.23-0.72c-0.02-0.32-0.04-0.68,0.08-0.96c0.7-1.69,0.9-3.49,1.32-5.24
		C103.21,225.75,103.4,225.62,103.57,225.42z"/>
	<path d="M159.2,251.53c0.56,0.35,0.82,0.52,1.09,0.68c0.61,0.36,1.19,0.34,1.85,0.05c1.61-0.73,3.07-1.66,4.45-2.93
		c-0.12-0.39-0.24-0.8-0.4-1.32C163.9,249.16,161.71,250.26,159.2,251.53z"/>
	<path d="M225.97,243.49c-0.36-0.68-0.63-1.19-0.9-1.69c-0.81-1.48-1.6-2.97-2.46-4.43c-0.64-1.08-1.11-2.2-1.15-3.47
		c-0.01-0.18,0.09-0.36,0.13-0.49c0.34-0.23,0.55-0.06,0.69,0.16c0.24,0.39,0.46,0.78,0.65,1.19c1,2.11,1.97,4.24,2.98,6.34
		C226.25,241.84,226.27,242.55,225.97,243.49z"/>
	<path d="M190.66,129.28c0.88-0.25,1.56-0.2,2.33,0.29c0.26,1.52,1.34,2.94,1.23,4.74c-0.57,0.31-1.1,0.25-1.46-0.14
		c-1.12-1.2-1.95-2.58-2.21-4.24C190.51,129.75,190.6,129.56,190.66,129.28z"/>
	<path d="M107.2,207.73c-0.42-0.16-0.66-0.26-0.9-0.36c-0.12-0.05-0.24-0.1-0.35-0.17c-0.53-0.38-1.17-2.61-0.91-3.24
		c0.07-0.17,0.2-0.37,0.36-0.45c0.68-0.35,1.35-0.77,2.25-0.59c0.26,1.16-0.67,1.71-1.25,2.52c1.26,0.34,2.63,0.21,3.79,1.13
		C109.16,206.97,108.2,207.34,107.2,207.73z"/>
	<path d="M147.23,246.49c0.94-1.13,1.17-2.45,1.74-3.61c0.19-0.38,0.01-0.8-0.39-0.97c-0.21-0.09-0.49-0.05-0.73-0.02
		c-0.11,0.01-0.2,0.15-0.29,0.25c-0.8,0.86-1.61,1.7-2.39,2.58c-0.29,0.33-0.5,0.73-0.75,1.1
		C145.47,246.56,145.58,246.58,147.23,246.49z"/>
	<path d="M165.99,272.24c-0.92,0.11-1.48,0.57-2.21,0.97c0.24,0.31,0.39,0.61,0.63,0.78c1.6,1.13,3.28,2.11,5.13,2.71
		c0.51-0.28,0.37-0.67,0.22-1.02c-0.07-0.17-0.24-0.31-0.38-0.44C168.27,274.25,167.15,273.26,165.99,272.24z"/>
	<path d="M67.68,246.96c-0.13-0.15-0.32-0.28-0.35-0.43c-0.17-1.09-0.35-2.17-0.34-3.28c0.02-1.36-0.08-2.72-0.13-4.09
		c-0.03-0.89-0.04-1.79,0.17-2.82c0.23,0.25,0.42,0.36,0.46,0.51c0.22,0.88,0.45,1.76,0.6,2.65c0.1,0.57,0.09,1.15,0.11,1.73
		c0.04,1.17,0.1,2.34,0.1,3.5C68.29,245.5,68.23,246.27,67.68,246.96z"/>
	<path d="M105.38,197.94c-0.18,0.9-0.78,1.45-1.55,1.83c-0.73,0.36-1.51,0.37-2.27,0.15c-0.47-0.13-0.77-0.49-0.81-0.99
		c-0.02-0.24,0.02-0.57,0.17-0.72c0.32-0.31,0.7-0.66,1.1-0.75c0.62-0.13,1.28-0.05,1.92-0.05
		C104.46,197.41,104.97,197.47,105.38,197.94z"/>
	<path d="M103.08,90.71c-0.44-1.67-1.28-3.19-0.82-5.04c0.34-0.06,0.65-0.13,0.96-0.15c0.32-0.03,0.64-0.01,0.95-0.01
		c0.47,0.51,0.55,1.03,0.39,1.65c-0.18,0.69-0.32,1.4-0.41,2.11C104.07,89.93,103.71,90.33,103.08,90.71z"/>
	<path d="M84.87,129.13c0.54,0.5,0.5,1.08,0.12,1.56c-0.55,0.7-1.17,1.36-1.82,1.98c-0.6,0.57-1.28,1.07-1.92,1.59
		c-0.34-0.16-0.25-0.43-0.16-0.63c0.59-1.36,1.15-2.73,2.28-3.78C83.8,129.45,84.24,129.1,84.87,129.13z"/>
	<path d="M139.42,160.76c1.17,0.34,1.9,0.58,2.65,0.77c0.82,0.21,1.64,0.42,2.48,0.54c0.79,0.11,1.39,0.51,2.1,0.96
		C143.46,164.11,141.84,163.64,139.42,160.76z"/>
	<path d="M94.9,202.29c-0.02-0.6-0.16-1.02-0.02-1.32c0.14-0.31,0.51-0.62,0.85-0.72c0.81-0.23,1.67-0.27,2.51-0.06
		c0.52,0.13,0.82,0.76,0.59,1.24c-0.23,0.49-0.57,0.9-1.16,0.91C96.82,202.36,95.98,202.32,94.9,202.29z"/>
	<path d="M176.7,166.32c0.53,0.01,1.02-0.14,1.49-0.38c0.52-0.25,1.06-0.45,1.51-0.63c0.55,0.16,0.81,0.49,0.78,0.89
		c-0.02,0.37-0.15,0.8-0.39,1.06c-0.34,0.37-0.83,0.61-1.25,0.91c-0.59-0.13-1.15-0.26-1.73-0.4c-0.08-0.18-0.2-0.34-0.24-0.51
		c-0.07-0.32-0.1-0.64-0.14-0.96L176.7,166.32z"/>
	<path d="M173.73,182.05c-0.42-0.13-0.78-0.14-0.86-0.29c-0.56-1.08-1.26-2.11-1.29-3.38c0-0.3,0.14-0.6,0.2-0.84
		c0.72-0.23,1.11,0.08,1.38,0.56c0.5,0.92,0.9,1.86,0.66,2.95C173.76,181.29,173.77,181.56,173.73,182.05z"/>
	<path d="M171.21,264.2c0.82-1.55,0.75-3.07-0.14-4.58c-0.14-0.24-0.44-0.35-0.68-0.21c-0.2,0.11-0.35,0.35-0.48,0.56
		c-0.06,0.1-0.03,0.26-0.01,0.38c0.13,0.97,0.26,1.93,0.41,2.9C170.38,263.71,170.55,264.13,171.21,264.2z"/>
	<path d="M163.75,253.91c0.84,0.44,1.46,0.93,2.33,0.94c0.67-0.72,1.17-1.53,1.63-2.29c-0.06-0.49-0.13-0.87-0.66-1.01
		C166.03,252.27,164.99,253.02,163.75,253.91z"/>
	<path d="M166.64,177.37c0.39,0.09,0.68,0.07,0.82,0.21c0.27,0.27,0.5,0.6,0.66,0.94c0.38,0.82,0.71,1.66,1.04,2.44
		c-0.1,0.6-0.48,0.79-0.94,0.89c-0.12-0.06-0.29-0.09-0.32-0.18c-0.43-1.01-0.86-2.01-1.23-3.04
		C166.55,178.34,166.64,177.99,166.64,177.37z"/>
	<path d="M108.72,196.79c-0.54-0.02-0.94-0.35-1.03-0.7c-0.09-0.36,0.07-0.63,0.32-0.86c0.6-0.56,1.33-0.84,2.13-0.88
		c0.27-0.01,0.62,0.19,0.83,0.4c0.26,0.26,0.16,0.62-0.04,0.9C110.34,196.46,109.48,196.7,108.72,196.79z"/>
	<path d="M117.3,129.59c0.4,0.52,0.59,0.77,0.72,0.94c0,0.23,0.03,0.37,0,0.49c-0.45,1.37-1.11,2.64-2.01,3.77
		c-0.08,0.1-0.28,0.23-0.3,0.21c-0.14-0.13-0.28-0.28-0.34-0.45c-0.06-0.17-0.05-0.39-0.01-0.57
		C115.74,132.53,116.51,131.26,117.3,129.59z"/>
	<path d="M81.36,178.48c-0.28-0.49-0.96-0.7-0.95-1.51c0.29-0.2,0.64-0.43,0.95-0.64c2.76,1.42,2.76,1.42,3.01,2.24
		c-0.3,0.39-0.68,0.54-1.18,0.39c-0.62-0.18-1.24-0.34-1.86-0.5L81.36,178.48z"/>
	<path d="M108.81,202.53c-0.16-0.58-0.29-1.05-0.42-1.51c0.32-0.22,0.63-0.44,0.94-0.67c0.39-0.29,0.84-0.3,1.29-0.24
		c0.85,0.11,1.13,0.85,0.59,1.55C110.49,202.61,110.21,202.72,108.81,202.53z"/>
	<path d="M85.39,176.07c-0.46,0.28-0.77,0.47-1.07,0.65c-1.33-1.23-1.38-1.35-1.08-2.48C84.14,174.52,84.81,175.04,85.39,176.07z"/>
	<path d="M102.32,208.92c-0.32-0.12-0.68-0.24-1.13-0.4c-0.04-0.34-0.09-0.7-0.13-1.07c0.24-0.1,0.41-0.23,0.58-0.24
		c0.73-0.04,1.43,0.02,1.81,0.85C103.42,208.72,102.8,208.69,102.32,208.92z"/>
	<path d="M86.1,172.32c0.73,0.11,1.23,0.38,1.4,1c0.05,0.18-0.11,0.54-0.28,0.64c-0.45,0.26-0.86,0.03-1.24-0.25
		c-0.29-0.22-0.36-0.55-0.29-0.86C85.76,172.63,85.99,172.47,86.1,172.32z"/>
	<path d="M106.26,235.24c0.16,0.86,0.58,1.67,0.46,2.82c-0.68-0.69-1.01-1.28-0.96-2.04C105.78,235.72,105.74,235.35,106.26,235.24z
		"/>
	<path d="M85.5,182.06c-0.4,0.82-1,0.96-1.48,1.25c-0.41-0.25-0.34-0.67-0.46-1.14C84.15,182.13,84.71,182.1,85.5,182.06z"/>
	<g>
		<path class="st0" d="M45.07,330.31l4.85-14.92l-1.5-1.77h11.14l-2,1.93l-8.86,28.36l1.89,1.88H39.44l1.89-1.82l-3.68-13.82
			l-3.68,13.76l2.01,1.88H25.46l1.89-1.88l-8.52-28.36l-1.95-1.93h11.03l-1.45,1.71l4.46,15.09l3.84-14.87l-1.73-1.93h9.75
			l-1.73,1.93L45.07,330.31z"/>
		<path class="st0" d="M87.41,318.87l-0.5,0.99v19.73l0.5,0.88l-6.96,5.31H66.36l-6.91-5.31l0.56-0.88v-19.73l-0.56-0.94l6.96-5.31
			h14.03L87.41,318.87z M68.81,319.97l-2.12,1.55v16.36l2.01,1.55h9.47l2-1.49v-16.42l-2-1.55H68.81z"/>
		<path class="st0" d="M112.67,345.79H89l1.56-1.88V315.5L89,313.62h9.91l-1.67,1.88v23.93h13.59l1.84-1.55V345.79z"/>
		<path class="st0" d="M138.38,313.62v7.9l-1.84-1.55h-13.53v7.02h8.24l1.89-1.6v9.51l-1.89-1.6h-8.24v10.61l1.67,1.88h-9.91
			l1.56-1.88V315.5l-1.56-1.88H138.38z"/>
		<path class="st0" d="M177.36,345.79h-23.67l1.56-1.88V315.5l-1.56-1.88h9.91l-1.67,1.88v23.93h13.59l1.84-1.55V345.79z"/>
		<path class="st0" d="M202.04,313.62l-1.73,1.88l10.75,28.41l1.84,1.88h-11.08l1.73-1.88l-1.34-3.92H190.4l-1.45,3.98l1.28,1.82
			h-10.75l1.95-1.88l10.86-28.41l-1.67-1.88H202.04z M200.15,333.85l-3.95-10.78l-3.68,10.78H200.15z"/>
		<path class="st0" d="M230.49,326.5l10.47,17.36l2.45,1.93h-11.75l1.56-1.66l-7.35-12.55l-3.01,3.26v9.07l1.67,1.88h-9.91
			l1.56-1.88V315.5l-1.56-1.88h9.91l-1.67,1.88v10.45l9.25-10.45l-1.39-1.88h12.42l-3.79,2.76L230.49,326.5z"/>
		<path class="st0" d="M268.45,313.62v7.9l-1.89-1.55h-13.31v7.02h8.52l1.89-1.6v9.51l-1.89-1.6h-8.52v6.14h14.31l1.89-1.55v7.9H245
			l1.56-1.88V315.5l-1.56-1.88H268.45z"/>
	</g>
	<g>
		<path class="st0" d="M34.68,363.24l2.76-7.94l-0.86-0.94h6.35l-1.14,1.03l-5.05,15.08l1.08,1h-6.35l1.08-0.97l-2.1-7.35l-2.1,7.32
			l1.14,1h-6l1.08-1l-4.86-15.08l-1.11-1.03h6.29l-0.83,0.91l2.54,8.03l2.19-7.91l-0.98-1.03h5.56l-0.98,1.03L34.68,363.24z"/>
		<path class="st0" d="M49.6,354.36l-0.95,1v15.11l0.95,1h-5.65l0.89-1v-15.11l-0.89-1H49.6z"/>
		<path class="st0" d="M64.34,371.48H50.84l0.89-1v-15.11l-0.89-1h5.65l-0.95,1v12.73h7.75l1.05-0.82V371.48z"/>
		<path class="st0" d="M77.92,354.36l3.97,2.79l-0.32,0.53v10.5l0.32,0.47l-3.97,2.82H65.73l0.89-1v-15.11l-0.89-1H77.92z
			 M70.43,357.74v10.35h6.13l1.21-0.82v-8.7l-1.21-0.82H70.43z"/>
		<path class="st0" d="M96.46,354.36v4.21l-1.08-0.82h-7.59v3.73h4.86l1.08-0.85v5.06l-1.08-0.85h-4.86v3.26h8.16l1.08-0.82v4.21
			H83.09l0.89-1v-15.11l-0.89-1H96.46z"/>
		<path class="st0" d="M114.02,357.19l-0.32,0.53v3.44l0.32,0.53l-3.81,2.71l3.78,6.09l1.37,1h-6.92l1.05-0.97l-3.71-5.97H103v5.94
			l1.11,1h-5.84l0.89-1v-15.11l-0.89-1h11.75L114.02,357.19z M109.89,358.57l-1.17-0.82H103v3.41h5.75l1.14-0.82V358.57z"/>
		<path class="st0" d="M131.71,370.48l0.92,1h-5.52l0.83-1.03l-6.83-9.15v9.17l0.95,1h-5.65l0.89-1v-15.11l-0.89-1h5.37l-0.67,0.91
			l6.79,9.09v-9l-0.92-1h5.65l-0.92,1V370.48z"/>
		<path class="st0" d="M147.24,354.36v4.21l-1.08-0.82h-7.59v3.73h4.86l1.08-0.85v5.06l-1.08-0.85h-4.86v3.26h8.16l1.08-0.82v4.21
			h-13.94l0.89-1v-15.11l-0.89-1H147.24z"/>
		<path class="st0" d="M160.48,361.21l3.65,2.56l-0.32,0.5v3.91l0.32,0.5l-4,2.79h-10.92v-4.21l1.08,0.85h8.51l1.21-0.82v-1.85
			l-1.21-0.85h-5.91l-3.97-2.82l0.29-0.5v-3.56l-0.32-0.5l4-2.85h9.97v4.21l-1.11-0.82h-7.59l-1.14,0.79v1.79l1.33,0.88H160.48z"/>
		<path class="st0" d="M176.82,361.21l3.65,2.56l-0.32,0.5v3.91l0.32,0.5l-4,2.79h-10.92v-4.21l1.08,0.85h8.51l1.21-0.82v-1.85
			l-1.21-0.85h-5.91l-3.97-2.82l0.29-0.5v-3.56l-0.32-0.5l4-2.85h9.97v4.21l-1.11-0.82h-7.59l-1.14,0.79v1.79l1.33,0.88H176.82z"/>
		<path class="st0" d="M202.92,371.48h-13.49l0.89-1v-15.11l-0.89-1h5.65l-0.95,1v12.73h7.75l1.05-0.82V371.48z"/>
		<path class="st0" d="M220.26,357.16l-0.29,0.53v10.5l0.29,0.47l-3.97,2.82h-8.03l-3.94-2.82l0.32-0.47v-10.5l-0.32-0.5l3.97-2.82
			h8L220.26,357.16z M209.65,357.74l-1.21,0.82v8.7l1.14,0.82h5.4l1.14-0.79v-8.73l-1.14-0.82H209.65z"/>
		<path class="st0" d="M233.56,354.36l3.97,2.79l-0.32,0.53v10.5l0.32,0.47l-3.97,2.82h-12.19l0.89-1v-15.11l-0.89-1H233.56z
			 M226.06,357.74v10.35h6.13l1.21-0.82v-8.7l-1.21-0.82H226.06z"/>
		<path class="st0" d="M255.11,361.27l-0.92,1v6.62l-3.65,2.59h-7.59l-3.97-2.82l0.32-0.47v-10.5l-0.32-0.5l3.97-2.82h10.64v4.21
			l-1.08-0.82h-8.26l-1.14,0.82v8.73l1.14,0.79h4.95l1.17-0.82v-5l-0.92-1H255.11z"/>
		<path class="st0" d="M269.37,354.36v4.21l-1.08-0.82h-7.59v3.73h4.86l1.08-0.85v5.06l-1.08-0.85h-4.86v3.26h8.16l1.08-0.82v4.21
			h-13.94l0.89-1v-15.11l-0.89-1H269.37z"/>
	</g>
	<g>
		<path class="st0" d="M70.62,387.98v4.51l0.59,0.72h-3.77l0.64-0.72V388l-3.88-6.4l-1-0.72h4.34l-0.34,0.55l2.12,4l2.18-4
			l-0.34-0.55h4.3l-1.04,0.72L70.62,387.98z"/>
		<path class="st0" d="M86.72,390.84l0.21,0.36l-2.67,2.01h-4.96l-2.65-2.01l0.19-0.36v-9.24l-0.59-0.72h3.77l-0.64,0.72v8.62
			l0.81,0.57h3.2l0.78-0.59v-8.58l-0.61-0.74h3.77l-0.61,0.72V390.84z"/>
		<path class="st0" d="M94.22,385.82l3.98,6.65l0.93,0.74h-4.47l0.59-0.64l-2.8-4.81l-1.14,1.25v3.48l0.64,0.72h-3.77l0.59-0.72
			V381.6l-0.59-0.72h3.77l-0.64,0.72v4l3.52-4l-0.53-0.72h4.73l-1.44,1.06L94.22,385.82z"/>
		<path class="st0" d="M109.8,382.9l-0.19,0.38v7.57l0.19,0.34l-2.65,2.03h-5.36l-2.63-2.03l0.21-0.34v-7.57l-0.21-0.36l2.65-2.03
			h5.34L109.8,382.9z M102.72,383.32l-0.81,0.59v6.27l0.76,0.59h3.6l0.76-0.57v-6.29l-0.76-0.59H102.72z"/>
		<path class="st0" d="M120.82,392.5l0.61,0.72h-3.69l0.55-0.74l-4.56-6.59v6.61l0.64,0.72h-3.77l0.59-0.72V381.6l-0.59-0.72h3.58
			l-0.44,0.66l4.53,6.55v-6.48l-0.61-0.72h3.77l-0.61,0.72V392.5z"/>
		<path class="st0" d="M134.19,393.22h-3.75l0.61-0.72v-9.18h-2.95l-0.72,0.59v-3.03h9.87v3.03l-0.74-0.59h-2.92v9.18L134.19,393.22
			z"/>
		<path class="st0" d="M147.03,380.88v3.03l-0.72-0.59h-5.06v2.69h3.24l0.72-0.61v3.64l-0.72-0.61h-3.24v2.35h5.45l0.72-0.59v3.03
			h-9.3l0.59-0.72V381.6l-0.59-0.72H147.03z"/>
		<path class="st0" d="M158.81,382.92l-0.21,0.38v2.48l0.21,0.38l-2.54,1.95l2.52,4.39l0.91,0.72h-4.62l0.7-0.7l-2.48-4.3h-1.84
			v4.28l0.74,0.72h-3.9l0.59-0.72V381.6l-0.59-0.72h7.84L158.81,382.92z M156.06,383.91l-0.78-0.59h-3.81v2.46h3.84l0.76-0.59
			V383.91z"/>
		<path class="st0" d="M170.97,382.92l-0.21,0.38v2.48l0.21,0.38l-2.54,1.95l2.52,4.39l0.91,0.72h-4.62l0.7-0.7l-2.48-4.3h-1.84
			v4.28l0.74,0.72h-3.9l0.59-0.72V381.6l-0.59-0.72h7.84L170.97,382.92z M168.22,383.91l-0.78-0.59h-3.81v2.46h3.84l0.76-0.59
			V383.91z"/>
		<path class="st0" d="M176.4,380.88l-0.64,0.72v10.89l0.64,0.72h-3.77l0.59-0.72V381.6l-0.59-0.72H176.4z"/>
		<path class="st0" d="M184.09,393.22h-3.75l0.61-0.72v-9.18h-2.95l-0.72,0.59v-3.03h9.87v3.03l-0.74-0.59h-2.92v9.18L184.09,393.22
			z"/>
		<path class="st0" d="M198.65,382.9l-0.19,0.38v7.57l0.19,0.34l-2.65,2.03h-5.36l-2.63-2.03l0.21-0.34v-7.57l-0.21-0.36l2.65-2.03
			H196L198.65,382.9z M191.57,383.32l-0.81,0.59v6.27l0.76,0.59h3.6l0.76-0.57v-6.29l-0.76-0.59H191.57z"/>
		<path class="st0" d="M209.96,382.92l-0.21,0.38v2.48l0.21,0.38l-2.54,1.95l2.52,4.39l0.91,0.72h-4.62l0.7-0.7l-2.48-4.3h-1.84
			v4.28l0.74,0.72h-3.9l0.59-0.72V381.6l-0.59-0.72h7.84L209.96,382.92z M207.21,383.91l-0.78-0.59h-3.81v2.46h3.84l0.76-0.59
			V383.91z"/>
		<path class="st0" d="M217.82,387.98v4.51l0.59,0.72h-3.77l0.64-0.72V388l-3.88-6.4l-1-0.72h4.34l-0.34,0.55l2.12,4l2.18-4
			l-0.34-0.55h4.3l-1.04,0.72L217.82,387.98z"/>
	</g>
</g>
<g>
	<path class="st1" d="M127.82,146.11c-0.58-1.37-1.16-2.74-1.76-4.14c3.12-1.27,5.98-1.26,8.97-0.68c-0.55,1.5-1.92,2.03-3.14,2.7
		C130.64,144.68,129.36,145.31,127.82,146.11z"/>
	<path class="st2" d="M89.8,145.76c-2.31-0.72-3.89-3.28-3.66-5.76C89.22,141.3,90.01,141.77,89.8,145.76z"/>
</g>
</svg>
